<?xml version="1.0" encoding="UTF-8"?>
<svg xmlns="http://www.w3.org/2000/svg" xmlns:xlink="http://www.w3.org/1999/xlink" width="1440pt" height="359.999987pt" viewBox="0 0 1440 359.999987" version="1.2">
<defs>
<clipPath id="clip1">
  <path d="M 166 102 L 183 102 L 183 128 L 166 128 Z M 166 102 "/>
</clipPath>
<clipPath id="clip2">
  <path d="M 118.402344 64.746094 L 185.378906 54.941406 L 196.207031 128.925781 L 129.234375 138.730469 Z M 118.402344 64.746094 "/>
</clipPath>
<clipPath id="clip3">
  <path d="M 118.402344 64.746094 L 185.378906 54.941406 L 196.207031 128.925781 L 129.234375 138.730469 Z M 118.402344 64.746094 "/>
</clipPath>
<clipPath id="clip4">
  <path d="M 118.402344 64.746094 L 185.554688 54.914062 L 196.410156 129.074219 L 129.261719 138.90625 Z M 118.402344 64.746094 "/>
</clipPath>
<clipPath id="clip5">
  <path d="M 152 108 L 170 108 L 170 134 L 152 134 Z M 152 108 "/>
</clipPath>
<clipPath id="clip6">
  <path d="M 118.402344 64.746094 L 185.378906 54.941406 L 196.207031 128.925781 L 129.234375 138.730469 Z M 118.402344 64.746094 "/>
</clipPath>
<clipPath id="clip7">
  <path d="M 118.402344 64.746094 L 185.378906 54.941406 L 196.207031 128.925781 L 129.234375 138.730469 Z M 118.402344 64.746094 "/>
</clipPath>
<clipPath id="clip8">
  <path d="M 118.402344 64.746094 L 185.554688 54.914062 L 196.410156 129.074219 L 129.261719 138.90625 Z M 118.402344 64.746094 "/>
</clipPath>
<clipPath id="clip9">
  <path d="M 130 100 L 139 100 L 139 108 L 130 108 Z M 130 100 "/>
</clipPath>
<clipPath id="clip10">
  <path d="M 118.402344 64.746094 L 185.378906 54.941406 L 196.207031 128.925781 L 129.234375 138.730469 Z M 118.402344 64.746094 "/>
</clipPath>
<clipPath id="clip11">
  <path d="M 118.402344 64.746094 L 185.378906 54.941406 L 196.207031 128.925781 L 129.234375 138.730469 Z M 118.402344 64.746094 "/>
</clipPath>
<clipPath id="clip12">
  <path d="M 118.402344 64.746094 L 185.554688 54.914062 L 196.410156 129.074219 L 129.261719 138.90625 Z M 118.402344 64.746094 "/>
</clipPath>
<clipPath id="clip13">
  <path d="M 142 72 L 176 72 L 176 111 L 142 111 Z M 142 72 "/>
</clipPath>
<clipPath id="clip14">
  <path d="M 118.402344 64.746094 L 185.378906 54.941406 L 196.207031 128.925781 L 129.234375 138.730469 Z M 118.402344 64.746094 "/>
</clipPath>
<clipPath id="clip15">
  <path d="M 118.402344 64.746094 L 185.378906 54.941406 L 196.207031 128.925781 L 129.234375 138.730469 Z M 118.402344 64.746094 "/>
</clipPath>
<clipPath id="clip16">
  <path d="M 118.402344 64.746094 L 185.554688 54.914062 L 196.410156 129.074219 L 129.261719 138.90625 Z M 118.402344 64.746094 "/>
</clipPath>
<clipPath id="clip17">
  <path d="M 132 81 L 146 81 L 146 102 L 132 102 Z M 132 81 "/>
</clipPath>
<clipPath id="clip18">
  <path d="M 118.402344 64.746094 L 185.378906 54.941406 L 196.207031 128.925781 L 129.234375 138.730469 Z M 118.402344 64.746094 "/>
</clipPath>
<clipPath id="clip19">
  <path d="M 118.402344 64.746094 L 185.378906 54.941406 L 196.207031 128.925781 L 129.234375 138.730469 Z M 118.402344 64.746094 "/>
</clipPath>
<clipPath id="clip20">
  <path d="M 118.402344 64.746094 L 185.554688 54.914062 L 196.410156 129.074219 L 129.261719 138.90625 Z M 118.402344 64.746094 "/>
</clipPath>
<clipPath id="clip21">
  <path d="M 178 81 L 187 81 L 187 90 L 178 90 Z M 178 81 "/>
</clipPath>
<clipPath id="clip22">
  <path d="M 118.402344 64.746094 L 185.378906 54.941406 L 196.207031 128.925781 L 129.234375 138.730469 Z M 118.402344 64.746094 "/>
</clipPath>
<clipPath id="clip23">
  <path d="M 118.402344 64.746094 L 185.378906 54.941406 L 196.207031 128.925781 L 129.234375 138.730469 Z M 118.402344 64.746094 "/>
</clipPath>
<clipPath id="clip24">
  <path d="M 118.402344 64.746094 L 185.554688 54.914062 L 196.410156 129.074219 L 129.261719 138.90625 Z M 118.402344 64.746094 "/>
</clipPath>
<clipPath id="clip25">
  <path d="M 161 72 L 182 72 L 182 88 L 161 88 Z M 161 72 "/>
</clipPath>
<clipPath id="clip26">
  <path d="M 118.402344 64.746094 L 185.378906 54.941406 L 196.207031 128.925781 L 129.234375 138.730469 Z M 118.402344 64.746094 "/>
</clipPath>
<clipPath id="clip27">
  <path d="M 118.402344 64.746094 L 185.378906 54.941406 L 196.207031 128.925781 L 129.234375 138.730469 Z M 118.402344 64.746094 "/>
</clipPath>
<clipPath id="clip28">
  <path d="M 118.402344 64.746094 L 185.554688 54.914062 L 196.410156 129.074219 L 129.261719 138.90625 Z M 118.402344 64.746094 "/>
</clipPath>
<clipPath id="clip29">
  <path d="M 182 68 L 188 68 L 188 73 L 182 73 Z M 182 68 "/>
</clipPath>
<clipPath id="clip30">
  <path d="M 118.402344 64.746094 L 185.378906 54.941406 L 196.207031 128.925781 L 129.234375 138.730469 Z M 118.402344 64.746094 "/>
</clipPath>
<clipPath id="clip31">
  <path d="M 118.402344 64.746094 L 185.378906 54.941406 L 196.207031 128.925781 L 129.234375 138.730469 Z M 118.402344 64.746094 "/>
</clipPath>
<clipPath id="clip32">
  <path d="M 118.402344 64.746094 L 185.554688 54.914062 L 196.410156 129.074219 L 129.261719 138.90625 Z M 118.402344 64.746094 "/>
</clipPath>
<clipPath id="clip33">
  <path d="M 187 106 L 194 106 L 194 113 L 187 113 Z M 187 106 "/>
</clipPath>
<clipPath id="clip34">
  <path d="M 118.402344 64.746094 L 185.378906 54.941406 L 196.207031 128.925781 L 129.234375 138.730469 Z M 118.402344 64.746094 "/>
</clipPath>
<clipPath id="clip35">
  <path d="M 118.402344 64.746094 L 185.378906 54.941406 L 196.207031 128.925781 L 129.234375 138.730469 Z M 118.402344 64.746094 "/>
</clipPath>
<clipPath id="clip36">
  <path d="M 118.402344 64.746094 L 185.554688 54.914062 L 196.410156 129.074219 L 129.261719 138.90625 Z M 118.402344 64.746094 "/>
</clipPath>
<clipPath id="clip37">
  <path d="M 126 69 L 132 69 L 132 74 L 126 74 Z M 126 69 "/>
</clipPath>
<clipPath id="clip38">
  <path d="M 118.402344 64.746094 L 185.378906 54.941406 L 196.207031 128.925781 L 129.234375 138.730469 Z M 118.402344 64.746094 "/>
</clipPath>
<clipPath id="clip39">
  <path d="M 118.402344 64.746094 L 185.378906 54.941406 L 196.207031 128.925781 L 129.234375 138.730469 Z M 118.402344 64.746094 "/>
</clipPath>
<clipPath id="clip40">
  <path d="M 118.402344 64.746094 L 185.554688 54.914062 L 196.410156 129.074219 L 129.261719 138.90625 Z M 118.402344 64.746094 "/>
</clipPath>
<clipPath id="clip41">
  <path d="M 131 78 L 135 78 L 135 82 L 131 82 Z M 131 78 "/>
</clipPath>
<clipPath id="clip42">
  <path d="M 118.402344 64.746094 L 185.378906 54.941406 L 196.207031 128.925781 L 129.234375 138.730469 Z M 118.402344 64.746094 "/>
</clipPath>
<clipPath id="clip43">
  <path d="M 118.402344 64.746094 L 185.378906 54.941406 L 196.207031 128.925781 L 129.234375 138.730469 Z M 118.402344 64.746094 "/>
</clipPath>
<clipPath id="clip44">
  <path d="M 118.402344 64.746094 L 185.554688 54.914062 L 196.410156 129.074219 L 129.261719 138.90625 Z M 118.402344 64.746094 "/>
</clipPath>
<clipPath id="clip45">
  <path d="M 122 87 L 126 87 L 126 91 L 122 91 Z M 122 87 "/>
</clipPath>
<clipPath id="clip46">
  <path d="M 118.402344 64.746094 L 185.378906 54.941406 L 196.207031 128.925781 L 129.234375 138.730469 Z M 118.402344 64.746094 "/>
</clipPath>
<clipPath id="clip47">
  <path d="M 118.402344 64.746094 L 185.378906 54.941406 L 196.207031 128.925781 L 129.234375 138.730469 Z M 118.402344 64.746094 "/>
</clipPath>
<clipPath id="clip48">
  <path d="M 118.402344 64.746094 L 185.554688 54.914062 L 196.410156 129.074219 L 129.261719 138.90625 Z M 118.402344 64.746094 "/>
</clipPath>
<clipPath id="clip49">
  <path d="M 144 124 L 148 124 L 148 129 L 144 129 Z M 144 124 "/>
</clipPath>
<clipPath id="clip50">
  <path d="M 118.402344 64.746094 L 185.378906 54.941406 L 196.207031 128.925781 L 129.234375 138.730469 Z M 118.402344 64.746094 "/>
</clipPath>
<clipPath id="clip51">
  <path d="M 118.402344 64.746094 L 185.378906 54.941406 L 196.207031 128.925781 L 129.234375 138.730469 Z M 118.402344 64.746094 "/>
</clipPath>
<clipPath id="clip52">
  <path d="M 118.402344 64.746094 L 185.554688 54.914062 L 196.410156 129.074219 L 129.261719 138.90625 Z M 118.402344 64.746094 "/>
</clipPath>
<clipPath id="clip53">
  <path d="M 130 117 L 135 117 L 135 123 L 130 123 Z M 130 117 "/>
</clipPath>
<clipPath id="clip54">
  <path d="M 118.402344 64.746094 L 185.378906 54.941406 L 196.207031 128.925781 L 129.234375 138.730469 Z M 118.402344 64.746094 "/>
</clipPath>
<clipPath id="clip55">
  <path d="M 118.402344 64.746094 L 185.378906 54.941406 L 196.207031 128.925781 L 129.234375 138.730469 Z M 118.402344 64.746094 "/>
</clipPath>
<clipPath id="clip56">
  <path d="M 118.402344 64.746094 L 185.554688 54.914062 L 196.410156 129.074219 L 129.261719 138.90625 Z M 118.402344 64.746094 "/>
</clipPath>
<clipPath id="clip57">
  <path d="M 169 64 L 175 64 L 175 69 L 169 69 Z M 169 64 "/>
</clipPath>
<clipPath id="clip58">
  <path d="M 118.402344 64.746094 L 185.378906 54.941406 L 196.207031 128.925781 L 129.234375 138.730469 Z M 118.402344 64.746094 "/>
</clipPath>
<clipPath id="clip59">
  <path d="M 118.402344 64.746094 L 185.378906 54.941406 L 196.207031 128.925781 L 129.234375 138.730469 Z M 118.402344 64.746094 "/>
</clipPath>
<clipPath id="clip60">
  <path d="M 118.402344 64.746094 L 185.554688 54.914062 L 196.410156 129.074219 L 129.261719 138.90625 Z M 118.402344 64.746094 "/>
</clipPath>
<clipPath id="clip61">
  <path d="M 142 72 L 161 72 L 161 83 L 142 83 Z M 142 72 "/>
</clipPath>
<clipPath id="clip62">
  <path d="M 118.402344 64.746094 L 185.378906 54.941406 L 196.207031 128.925781 L 129.234375 138.730469 Z M 118.402344 64.746094 "/>
</clipPath>
<clipPath id="clip63">
  <path d="M 118.402344 64.746094 L 185.378906 54.941406 L 196.207031 128.925781 L 129.234375 138.730469 Z M 118.402344 64.746094 "/>
</clipPath>
<clipPath id="clip64">
  <path d="M 118.402344 64.746094 L 185.554688 54.914062 L 196.410156 129.074219 L 129.261719 138.90625 Z M 118.402344 64.746094 "/>
</clipPath>
<clipPath id="clip65">
  <path d="M 139 61 L 159 61 L 159 81 L 139 81 Z M 139 61 "/>
</clipPath>
<clipPath id="clip66">
  <path d="M 118.402344 64.746094 L 185.378906 54.941406 L 196.207031 128.925781 L 129.234375 138.730469 Z M 118.402344 64.746094 "/>
</clipPath>
<clipPath id="clip67">
  <path d="M 118.402344 64.746094 L 185.378906 54.941406 L 196.207031 128.925781 L 129.234375 138.730469 Z M 118.402344 64.746094 "/>
</clipPath>
<clipPath id="clip68">
  <path d="M 118.402344 64.746094 L 185.554688 54.914062 L 196.410156 129.074219 L 129.261719 138.90625 Z M 118.402344 64.746094 "/>
</clipPath>
<clipPath id="clip69">
  <path d="M 139 63 L 159 63 L 159 79 L 139 79 Z M 139 63 "/>
</clipPath>
<clipPath id="clip70">
  <path d="M 118.402344 64.746094 L 185.378906 54.941406 L 196.207031 128.925781 L 129.234375 138.730469 Z M 118.402344 64.746094 "/>
</clipPath>
<clipPath id="clip71">
  <path d="M 118.402344 64.746094 L 185.378906 54.941406 L 196.207031 128.925781 L 129.234375 138.730469 Z M 118.402344 64.746094 "/>
</clipPath>
<clipPath id="clip72">
  <path d="M 118.402344 64.746094 L 185.554688 54.914062 L 196.410156 129.074219 L 129.261719 138.90625 Z M 118.402344 64.746094 "/>
</clipPath>
<clipPath id="clip73">
  <path d="M 150 82 L 162 82 L 162 93 L 150 93 Z M 150 82 "/>
</clipPath>
<clipPath id="clip74">
  <path d="M 118.402344 64.746094 L 185.378906 54.941406 L 196.207031 128.925781 L 129.234375 138.730469 Z M 118.402344 64.746094 "/>
</clipPath>
<clipPath id="clip75">
  <path d="M 118.402344 64.746094 L 185.378906 54.941406 L 196.207031 128.925781 L 129.234375 138.730469 Z M 118.402344 64.746094 "/>
</clipPath>
<clipPath id="clip76">
  <path d="M 118.402344 64.746094 L 185.554688 54.914062 L 196.410156 129.074219 L 129.261719 138.90625 Z M 118.402344 64.746094 "/>
</clipPath>
<clipPath id="clip77">
  <path d="M 164 72 L 170 72 L 170 77 L 164 77 Z M 164 72 "/>
</clipPath>
<clipPath id="clip78">
  <path d="M 118.402344 64.746094 L 185.378906 54.941406 L 196.207031 128.925781 L 129.234375 138.730469 Z M 118.402344 64.746094 "/>
</clipPath>
<clipPath id="clip79">
  <path d="M 118.402344 64.746094 L 185.378906 54.941406 L 196.207031 128.925781 L 129.234375 138.730469 Z M 118.402344 64.746094 "/>
</clipPath>
<clipPath id="clip80">
  <path d="M 118.402344 64.746094 L 185.554688 54.914062 L 196.410156 129.074219 L 129.261719 138.90625 Z M 118.402344 64.746094 "/>
</clipPath>
<clipPath id="clip81">
  <path d="M 151 107 L 165 107 L 165 111 L 151 111 Z M 151 107 "/>
</clipPath>
<clipPath id="clip82">
  <path d="M 118.402344 64.746094 L 185.378906 54.941406 L 196.207031 128.925781 L 129.234375 138.730469 Z M 118.402344 64.746094 "/>
</clipPath>
<clipPath id="clip83">
  <path d="M 118.402344 64.746094 L 185.378906 54.941406 L 196.207031 128.925781 L 129.234375 138.730469 Z M 118.402344 64.746094 "/>
</clipPath>
<clipPath id="clip84">
  <path d="M 118.402344 64.746094 L 185.554688 54.914062 L 196.410156 129.074219 L 129.261719 138.90625 Z M 118.402344 64.746094 "/>
</clipPath>
<clipPath id="clip85">
  <path d="M 165 101 L 177 101 L 177 110 L 165 110 Z M 165 101 "/>
</clipPath>
<clipPath id="clip86">
  <path d="M 118.402344 64.746094 L 185.378906 54.941406 L 196.207031 128.925781 L 129.234375 138.730469 Z M 118.402344 64.746094 "/>
</clipPath>
<clipPath id="clip87">
  <path d="M 118.402344 64.746094 L 185.378906 54.941406 L 196.207031 128.925781 L 129.234375 138.730469 Z M 118.402344 64.746094 "/>
</clipPath>
<clipPath id="clip88">
  <path d="M 118.402344 64.746094 L 185.554688 54.914062 L 196.410156 129.074219 L 129.261719 138.90625 Z M 118.402344 64.746094 "/>
</clipPath>
<clipPath id="clip89">
  <path d="M 85 128.15625 L 111 128.15625 L 111 146 L 85 146 Z M 85 128.15625 "/>
</clipPath>
<clipPath id="clip90">
  <path d="M 64.3125 128.15625 L 104 128.15625 L 104 176 L 64.3125 176 Z M 64.3125 128.15625 "/>
</clipPath>
<clipPath id="clip91">
  <path d="M 64.3125 131 L 88 131 L 88 156 L 64.3125 156 Z M 64.3125 131 "/>
</clipPath>
<clipPath id="clip92">
  <path d="M 134 130 L 145.300781 130 L 145.300781 142 L 134 142 Z M 134 130 "/>
</clipPath>
</defs>
<g id="surface1">
<path style=" stroke:none;fill-rule:nonzero;fill:rgb(100%,24.708557%,24.708557%);fill-opacity:1;" d="M 32.296875 306.066406 C 61.585938 325.070312 96.9375 335.503906 134.738281 334.769531 C 190.332031 333.691406 239.660156 307.820312 272.710938 268.476562 C 296.953125 279.574219 324.210938 285.714844 352.675781 285.164062 C 375.359375 284.722656 397.074219 280.296875 416.941406 272.347656 C 451.1875 317.503906 506.023438 346.246094 566.953125 345.0625 C 627.441406 343.886719 680.683594 313.492188 713.167969 267.929688 C 747.199219 301.96875 794.3125 322.40625 846.347656 321.398438 C 887.265625 320.601562 924.808594 306.527344 955.058594 283.253906 C 992.828125 326.558594 1050.75 353.90625 1114.796875 352.660156 L 1120.132812 352.558594 L 1125.46875 352.453125 C 1175.726562 351.476562 1221.136719 330.132812 1253.863281 297.023438 C 1258.679688 292.925781 1263.039062 288.394531 1266.949219 283.425781 C 1280.351562 286.277344 1294.164062 287.34375 1307.949219 287.078125 C 1347.089844 286.316406 1382.871094 273.164062 1412.265625 251.6875 C 1432.367188 278.878906 1459.914062 299.695312 1491.75 312.421875 L 1489.390625 191.023438 L 1489.835938 191.015625 L 1477.238281 -457.777344 L 18.011719 -429.441406 L 30.601562 218.90625 L 30.160156 218.914062 Z M 32.296875 306.066406 "/>
<g clip-path="url(#clip1)" clip-rule="nonzero">
<g clip-path="url(#clip2)" clip-rule="nonzero">
<g clip-path="url(#clip3)" clip-rule="nonzero">
<g clip-path="url(#clip4)" clip-rule="nonzero">
<path style=" stroke:none;fill-rule:nonzero;fill:rgb(80.778503%,89.408875%,96.469116%);fill-opacity:1;" d="M 180.375 120.65625 C 181.84375 121.871094 183.070312 124.558594 181.550781 125.933594 C 179.078125 128.167969 175.910156 128.03125 174.347656 126.082031 C 173.722656 125.296875 172.617188 123.125 172.191406 122.203125 C 170.695312 119.003906 170.386719 114.894531 169.375 112.605469 C 168.953125 111.648438 167.8125 109.78125 166.863281 108.292969 C 169.296875 104.621094 173.980469 101.550781 175.613281 102.082031 L 175.621094 102.074219 C 177.265625 104.921875 178.503906 107.535156 178.789062 108.917969 C 179.128906 110.582031 179.15625 114.972656 178.972656 117.863281 C 178.878906 119.320312 179.71875 120.109375 180.375 120.65625 "/>
</g>
</g>
</g>
</g>
<g clip-path="url(#clip5)" clip-rule="nonzero">
<g clip-path="url(#clip6)" clip-rule="nonzero">
<g clip-path="url(#clip7)" clip-rule="nonzero">
<g clip-path="url(#clip8)" clip-rule="nonzero">
<path style=" stroke:none;fill-rule:nonzero;fill:rgb(80.778503%,89.408875%,96.469116%);fill-opacity:1;" d="M 168.527344 125.179688 C 169.113281 126.449219 169.0625 127.90625 169.050781 129.300781 C 169.039062 131.21875 167.710938 133.3125 163.925781 132.96875 C 161.800781 132.769531 161.433594 130.558594 161.453125 129.019531 C 161.464844 127.910156 161.039062 126.832031 160.277344 126.019531 C 158.722656 124.363281 156.027344 121.25 154.742188 119.175781 C 153.949219 117.902344 152.964844 114.125 152.15625 110.105469 C 155.585938 108.078125 158.128906 108.59375 163.148438 110.105469 C 163.210938 111.894531 163.332031 113.960938 163.582031 114.949219 C 164.21875 117.511719 167.242188 122.402344 168.527344 125.179688 "/>
</g>
</g>
</g>
</g>
<g clip-path="url(#clip9)" clip-rule="nonzero">
<g clip-path="url(#clip10)" clip-rule="nonzero">
<g clip-path="url(#clip11)" clip-rule="nonzero">
<g clip-path="url(#clip12)" clip-rule="nonzero">
<path style=" stroke:none;fill-rule:nonzero;fill:rgb(87.838745%,92.939758%,97.648621%);fill-opacity:1;" d="M 138.378906 101.9375 C 138.710938 103.207031 138.71875 106.179688 137.851562 106.734375 C 137.300781 107.085938 136.5625 106.9375 136.339844 106.683594 C 136.074219 106.375 135.894531 106.160156 135.578125 106.414062 C 134.933594 106.941406 133.160156 107.648438 132.144531 107.265625 C 129.898438 106.421875 130.203125 103.003906 132.570312 100.207031 L 138.378906 101.9375 "/>
</g>
</g>
</g>
</g>
<g clip-path="url(#clip13)" clip-rule="nonzero">
<g clip-path="url(#clip14)" clip-rule="nonzero">
<g clip-path="url(#clip15)" clip-rule="nonzero">
<g clip-path="url(#clip16)" clip-rule="nonzero">
<path style=" stroke:none;fill-rule:nonzero;fill:rgb(87.838745%,92.939758%,97.648621%);fill-opacity:1;" d="M 171.597656 95.820312 C 170.410156 94.1875 168.460938 88.167969 166.363281 82.601562 C 164.777344 78.402344 163.117188 74.464844 161.625 72.835938 L 161.625 72.828125 C 161.175781 72.839844 160.71875 72.875 160.246094 72.929688 C 159.609375 73.003906 158.949219 73.125 158.273438 73.296875 C 157.609375 76.136719 155.675781 78.640625 152.800781 79.917969 C 150.003906 81.160156 146.925781 80.964844 144.410156 79.640625 C 143.917969 80.011719 143.417969 80.445312 142.902344 80.9375 C 142.75 81.074219 142.589844 81.230469 142.433594 81.386719 C 142.835938 84.128906 144.136719 87.695312 145.578125 91.121094 C 147.972656 96.804688 150.832031 102.164062 150.941406 103 C 151.226562 105.121094 151.660156 107.65625 152.15625 110.105469 C 155.585938 108.078125 158.128906 108.59375 163.148438 110.105469 C 163.082031 108.390625 163.074219 106.925781 163.074219 106.925781 C 163.1875 105.71875 164.609375 105.234375 165.453125 106.117188 C 165.453125 106.117188 166.089844 107.074219 166.863281 108.292969 C 169.296875 104.621094 173.980469 101.550781 175.613281 102.082031 L 175.621094 102.074219 C 174.425781 99.992188 173.007812 97.769531 171.597656 95.820312 "/>
</g>
</g>
</g>
</g>
<g clip-path="url(#clip17)" clip-rule="nonzero">
<g clip-path="url(#clip18)" clip-rule="nonzero">
<g clip-path="url(#clip19)" clip-rule="nonzero">
<g clip-path="url(#clip20)" clip-rule="nonzero">
<path style=" stroke:none;fill-rule:nonzero;fill:rgb(80.778503%,89.408875%,96.469116%);fill-opacity:1;" d="M 142.433594 81.386719 C 140.890625 82.917969 139.296875 84.894531 137.835938 86.992188 C 134.140625 92.308594 131.328125 98.414062 132.570312 100.207031 L 138.378906 101.9375 C 140.929688 101.5 142.699219 95.4375 145.578125 91.121094 C 144.136719 87.695312 142.835938 84.128906 142.433594 81.386719 "/>
</g>
</g>
</g>
</g>
<g clip-path="url(#clip21)" clip-rule="nonzero">
<g clip-path="url(#clip22)" clip-rule="nonzero">
<g clip-path="url(#clip23)" clip-rule="nonzero">
<g clip-path="url(#clip24)" clip-rule="nonzero">
<path style=" stroke:none;fill-rule:nonzero;fill:rgb(87.838745%,92.939758%,97.648621%);fill-opacity:1;" d="M 181.488281 81.53125 C 184.375 81.574219 187.605469 82.949219 186.808594 85.589844 C 186.523438 86.515625 183.84375 87.605469 183.679688 87.875 C 183.488281 88.183594 183.648438 89.078125 183.46875 89.390625 C 183.285156 89.707031 182.195312 90.277344 181.410156 89.832031 C 180.617188 89.371094 179.355469 88.085938 178.914062 86.996094 L 181.488281 81.53125 "/>
</g>
</g>
</g>
</g>
<g clip-path="url(#clip25)" clip-rule="nonzero">
<g clip-path="url(#clip26)" clip-rule="nonzero">
<g clip-path="url(#clip27)" clip-rule="nonzero">
<g clip-path="url(#clip28)" clip-rule="nonzero">
<path style=" stroke:none;fill-rule:nonzero;fill:rgb(80.778503%,89.408875%,96.469116%);fill-opacity:1;" d="M 181.488281 81.53125 L 178.914062 86.996094 C 177.3125 87.917969 174 85.871094 166.464844 82.5625 L 166.363281 82.601562 C 164.777344 78.402344 163.117188 74.464844 161.625 72.835938 L 162.539062 72.839844 C 163.007812 72.832031 163.527344 72.882812 164.085938 72.980469 C 165.84375 73.285156 167.933594 74.035156 169.488281 74.671875 C 170.628906 75.128906 171.484375 75.527344 171.742188 75.640625 C 176.207031 77.628906 181.953125 79.585938 181.488281 81.53125 "/>
</g>
</g>
</g>
</g>
<g clip-path="url(#clip29)" clip-rule="nonzero">
<g clip-path="url(#clip30)" clip-rule="nonzero">
<g clip-path="url(#clip31)" clip-rule="nonzero">
<g clip-path="url(#clip32)" clip-rule="nonzero">
<path style=" stroke:none;fill-rule:nonzero;fill:rgb(40.388489%,79.60968%,70.588684%);fill-opacity:1;" d="M 187.042969 70.792969 C 187.203125 71.871094 186.144531 72.667969 185.0625 72.824219 C 183.984375 72.984375 182.980469 72.234375 182.820312 71.15625 C 182.664062 70.074219 183.582031 68.789062 184.664062 68.628906 C 185.746094 68.472656 186.886719 69.710938 187.042969 70.792969 "/>
</g>
</g>
</g>
</g>
<g clip-path="url(#clip33)" clip-rule="nonzero">
<g clip-path="url(#clip34)" clip-rule="nonzero">
<g clip-path="url(#clip35)" clip-rule="nonzero">
<g clip-path="url(#clip36)" clip-rule="nonzero">
<path style=" stroke:none;fill-rule:nonzero;fill:rgb(37.249756%,41.178894%,73.329163%);fill-opacity:1;" d="M 193.261719 109.191406 C 193.484375 110.726562 191.984375 111.855469 190.449219 112.082031 C 188.914062 112.304688 187.488281 111.242188 187.265625 109.707031 C 187.042969 108.175781 188.347656 106.347656 189.882812 106.125 C 191.414062 105.898438 193.035156 107.660156 193.261719 109.191406 "/>
</g>
</g>
</g>
</g>
<g clip-path="url(#clip37)" clip-rule="nonzero">
<g clip-path="url(#clip38)" clip-rule="nonzero">
<g clip-path="url(#clip39)" clip-rule="nonzero">
<g clip-path="url(#clip40)" clip-rule="nonzero">
<path style=" stroke:none;fill-rule:nonzero;fill:rgb(42.749023%,56.858826%,82.348633%);fill-opacity:1;" d="M 131.152344 71.230469 C 131.3125 72.300781 130.261719 73.089844 129.191406 73.246094 C 128.121094 73.402344 127.125 72.664062 126.96875 71.59375 C 126.8125 70.523438 127.722656 69.246094 128.792969 69.089844 C 129.863281 68.933594 130.996094 70.160156 131.152344 71.230469 "/>
</g>
</g>
</g>
</g>
<g clip-path="url(#clip41)" clip-rule="nonzero">
<g clip-path="url(#clip42)" clip-rule="nonzero">
<g clip-path="url(#clip43)" clip-rule="nonzero">
<g clip-path="url(#clip44)" clip-rule="nonzero">
<path style=" stroke:none;fill-rule:nonzero;fill:rgb(96.469116%,51.759338%,21.179199%);fill-opacity:1;" d="M 134.128906 80.242188 C 134.246094 81.035156 133.46875 81.621094 132.675781 81.734375 C 131.882812 81.851562 131.144531 81.304688 131.03125 80.511719 C 130.914062 79.71875 131.589844 78.773438 132.382812 78.65625 C 133.175781 78.539062 134.011719 79.449219 134.128906 80.242188 "/>
</g>
</g>
</g>
</g>
<g clip-path="url(#clip45)" clip-rule="nonzero">
<g clip-path="url(#clip46)" clip-rule="nonzero">
<g clip-path="url(#clip47)" clip-rule="nonzero">
<g clip-path="url(#clip48)" clip-rule="nonzero">
<path style=" stroke:none;fill-rule:nonzero;fill:rgb(94.898987%,32.548523%,36.079407%);fill-opacity:1;" d="M 125.335938 89.160156 C 125.453125 89.953125 124.675781 90.539062 123.882812 90.65625 C 123.089844 90.769531 122.351562 90.222656 122.234375 89.429688 C 122.117188 88.636719 122.792969 87.691406 123.589844 87.578125 C 124.382812 87.460938 125.21875 88.367188 125.335938 89.160156 "/>
</g>
</g>
</g>
</g>
<g clip-path="url(#clip49)" clip-rule="nonzero">
<g clip-path="url(#clip50)" clip-rule="nonzero">
<g clip-path="url(#clip51)" clip-rule="nonzero">
<g clip-path="url(#clip52)" clip-rule="nonzero">
<path style=" stroke:none;fill-rule:nonzero;fill:rgb(93.728638%,17.649841%,43.528748%);fill-opacity:1;" d="M 147.867188 126.492188 C 147.980469 127.285156 147.207031 127.871094 146.414062 127.988281 C 145.621094 128.101562 144.882812 127.554688 144.765625 126.761719 C 144.648438 125.96875 145.324219 125.023438 146.121094 124.90625 C 146.910156 124.792969 147.75 125.699219 147.867188 126.492188 "/>
</g>
</g>
</g>
</g>
<g clip-path="url(#clip53)" clip-rule="nonzero">
<g clip-path="url(#clip54)" clip-rule="nonzero">
<g clip-path="url(#clip55)" clip-rule="nonzero">
<g clip-path="url(#clip56)" clip-rule="nonzero">
<path style=" stroke:none;fill-rule:nonzero;fill:rgb(98.429871%,79.60968%,39.608765%);fill-opacity:1;" d="M 132.539062 117.8125 L 133.171875 118.652344 C 133.21875 118.714844 133.289062 118.765625 133.363281 118.796875 L 134.347656 119.160156 C 134.671875 119.28125 134.734375 119.710938 134.457031 119.917969 L 133.621094 120.546875 C 133.554688 120.597656 133.503906 120.664062 133.476562 120.742188 L 133.113281 121.722656 C 132.992188 122.046875 132.5625 122.113281 132.355469 121.835938 L 131.726562 121 C 131.675781 120.933594 131.605469 120.882812 131.527344 120.851562 L 130.546875 120.488281 C 130.222656 120.371094 130.160156 119.941406 130.4375 119.734375 L 131.269531 119.101562 C 131.339844 119.054688 131.390625 118.984375 131.417969 118.90625 L 131.78125 117.925781 C 131.902344 117.601562 132.332031 117.539062 132.539062 117.8125 "/>
</g>
</g>
</g>
</g>
<g clip-path="url(#clip57)" clip-rule="nonzero">
<g clip-path="url(#clip58)" clip-rule="nonzero">
<g clip-path="url(#clip59)" clip-rule="nonzero">
<g clip-path="url(#clip60)" clip-rule="nonzero">
<path style=" stroke:none;fill-rule:nonzero;fill:rgb(98.429871%,79.60968%,39.608765%);fill-opacity:1;" d="M 172.195312 64.433594 L 172.859375 65.3125 C 172.910156 65.382812 172.980469 65.4375 173.0625 65.464844 L 174.09375 65.847656 C 174.433594 65.972656 174.5 66.421875 174.210938 66.640625 L 173.332031 67.300781 C 173.261719 67.355469 173.210938 67.425781 173.179688 67.507812 L 172.796875 68.535156 C 172.671875 68.875 172.222656 68.941406 172.003906 68.652344 L 171.34375 67.777344 C 171.292969 67.707031 171.21875 67.652344 171.136719 67.625 L 170.105469 67.242188 C 169.769531 67.113281 169.703125 66.664062 169.988281 66.449219 L 170.867188 65.789062 C 170.9375 65.734375 170.992188 65.660156 171.023438 65.582031 L 171.402344 64.550781 C 171.527344 64.210938 171.976562 64.144531 172.195312 64.433594 "/>
</g>
</g>
</g>
</g>
<g clip-path="url(#clip61)" clip-rule="nonzero">
<g clip-path="url(#clip62)" clip-rule="nonzero">
<g clip-path="url(#clip63)" clip-rule="nonzero">
<g clip-path="url(#clip64)" clip-rule="nonzero">
<path style=" stroke:none;fill-rule:nonzero;fill:rgb(65.489197%,75.289917%,90.19928%);fill-opacity:1;" d="M 160.246094 72.929688 C 159.65625 76.644531 157.253906 79.984375 153.5625 81.628906 C 149.976562 83.21875 146.015625 82.835938 142.902344 80.9375 C 143.417969 80.445312 143.917969 80.011719 144.410156 79.640625 C 146.925781 80.964844 150.003906 81.160156 152.800781 79.917969 C 155.675781 78.640625 157.609375 76.136719 158.273438 73.296875 C 158.949219 73.125 159.609375 73.003906 160.246094 72.929688 "/>
</g>
</g>
</g>
</g>
<g clip-path="url(#clip65)" clip-rule="nonzero">
<g clip-path="url(#clip66)" clip-rule="nonzero">
<g clip-path="url(#clip67)" clip-rule="nonzero">
<g clip-path="url(#clip68)" clip-rule="nonzero">
<path style=" stroke:none;fill-rule:nonzero;fill:rgb(87.838745%,92.939758%,97.648621%);fill-opacity:1;" d="M 157.691406 67.210938 C 159.851562 72.070312 157.664062 77.757812 152.804688 79.917969 C 147.945312 82.078125 142.253906 79.894531 140.09375 75.035156 C 137.933594 70.179688 140.121094 64.488281 144.980469 62.328125 C 149.839844 60.167969 155.53125 62.355469 157.691406 67.210938 "/>
</g>
</g>
</g>
</g>
<g clip-path="url(#clip69)" clip-rule="nonzero">
<g clip-path="url(#clip70)" clip-rule="nonzero">
<g clip-path="url(#clip71)" clip-rule="nonzero">
<g clip-path="url(#clip72)" clip-rule="nonzero">
<path style=" stroke:none;fill-rule:nonzero;fill:rgb(27.059937%,23.529053%,39.219666%);fill-opacity:1;" d="M 157.675781 67.179688 C 159.203125 70.605469 156.496094 75.140625 151.640625 77.300781 C 146.78125 79.460938 141.605469 78.429688 140.078125 75.003906 C 138.554688 71.574219 141.257812 67.042969 146.113281 64.882812 C 150.972656 62.722656 156.152344 63.75 157.675781 67.179688 "/>
</g>
</g>
</g>
</g>
<g clip-path="url(#clip73)" clip-rule="nonzero">
<g clip-path="url(#clip74)" clip-rule="nonzero">
<g clip-path="url(#clip75)" clip-rule="nonzero">
<g clip-path="url(#clip76)" clip-rule="nonzero">
<path style=" stroke:none;fill-rule:nonzero;fill:rgb(100%,100%,100%);fill-opacity:1;" d="M 159.855469 89.863281 L 155.472656 91.808594 C 154.3125 92.324219 152.960938 91.804688 152.445312 90.648438 L 151.050781 87.511719 C 150.535156 86.355469 151.058594 85 152.210938 84.488281 L 156.597656 82.539062 C 157.75 82.027344 159.105469 82.542969 159.621094 83.699219 L 161.015625 86.839844 C 161.527344 87.996094 161.011719 89.347656 159.855469 89.863281 "/>
</g>
</g>
</g>
</g>
<g clip-path="url(#clip77)" clip-rule="nonzero">
<g clip-path="url(#clip78)" clip-rule="nonzero">
<g clip-path="url(#clip79)" clip-rule="nonzero">
<g clip-path="url(#clip80)" clip-rule="nonzero">
<path style=" stroke:none;fill-rule:nonzero;fill:rgb(42.749023%,56.858826%,82.348633%);fill-opacity:1;" d="M 169.488281 74.671875 C 167.464844 77.839844 164.792969 74.585938 164.078125 72.984375 L 164.085938 72.980469 C 165.84375 73.285156 167.933594 74.035156 169.488281 74.671875 "/>
</g>
</g>
</g>
</g>
<g clip-path="url(#clip81)" clip-rule="nonzero">
<g clip-path="url(#clip82)" clip-rule="nonzero">
<g clip-path="url(#clip83)" clip-rule="nonzero">
<g clip-path="url(#clip84)" clip-rule="nonzero">
<path style=" stroke:none;fill-rule:nonzero;fill:rgb(94.898987%,32.548523%,36.079407%);fill-opacity:1;" d="M 163.273438 110.984375 C 163.023438 111.023438 162.761719 110.953125 162.558594 110.777344 C 159.960938 108.515625 155.585938 109.113281 152.605469 110.867188 C 152.183594 111.121094 151.636719 110.976562 151.386719 110.554688 C 151.140625 110.132812 151.277344 109.589844 151.703125 109.339844 C 155.125 107.320312 160.34375 106.492188 163.730469 109.433594 C 164.097656 109.753906 164.140625 110.316406 163.8125 110.6875 C 163.667969 110.855469 163.476562 110.957031 163.273438 110.984375 "/>
</g>
</g>
</g>
</g>
<g clip-path="url(#clip85)" clip-rule="nonzero">
<g clip-path="url(#clip86)" clip-rule="nonzero">
<g clip-path="url(#clip87)" clip-rule="nonzero">
<g clip-path="url(#clip88)" clip-rule="nonzero">
<path style=" stroke:none;fill-rule:nonzero;fill:rgb(94.898987%,32.548523%,36.079407%);fill-opacity:1;" d="M 166.988281 109.171875 C 166.851562 109.191406 166.710938 109.179688 166.574219 109.132812 C 166.109375 108.976562 165.859375 108.472656 166.015625 108.007812 C 167.414062 103.863281 173.574219 100.480469 175.890625 101.238281 C 176.359375 101.390625 176.613281 101.890625 176.460938 102.359375 C 176.308594 102.828125 175.804688 103.082031 175.339844 102.929688 C 174.273438 102.582031 168.890625 105.0625 167.703125 108.574219 C 167.59375 108.902344 167.308594 109.125 166.988281 109.171875 "/>
</g>
</g>
</g>
</g>
<g clip-path="url(#clip89)" clip-rule="nonzero">
<path style=" stroke:none;fill-rule:nonzero;fill:rgb(15.289307%,31.369019%,66.268921%);fill-opacity:1;" d="M 103.421875 145.949219 C 106.351562 145.25 108.867188 145.4375 110.800781 145.894531 C 108.121094 135.695312 98.910156 128.175781 87.953125 128.175781 C 87.261719 128.175781 86.582031 128.210938 85.910156 128.269531 C 94.371094 129.136719 101.320312 136.363281 103.421875 145.949219 "/>
</g>
<path style=" stroke:none;fill-rule:nonzero;fill:rgb(15.289307%,31.369019%,66.268921%);fill-opacity:1;" d="M 85.910156 175.769531 C 86.582031 175.828125 87.261719 175.863281 87.953125 175.863281 C 89.511719 175.863281 91.03125 175.707031 92.507812 175.417969 L 94.753906 172.21875 C 92.148438 174.183594 89.140625 175.4375 85.910156 175.769531 "/>
<g clip-path="url(#clip90)" clip-rule="nonzero">
<path style=" stroke:none;fill-rule:nonzero;fill:rgb(11.759949%,40.779114%,73.329163%);fill-opacity:1;" d="M 73.035156 164.300781 C 72.449219 161.796875 73.179688 160.472656 75.664062 160.472656 C 77.132812 160.472656 81.800781 162.535156 80.195312 165.777344 C 78.585938 169.019531 73.617188 166.808594 73.035156 164.300781 Z M 94.753906 172.21875 L 95.792969 170.738281 L 96.59375 169.601562 L 95.214844 168.214844 C 95.214844 168.214844 95.867188 166.96875 97.15625 164.929688 C 97.304688 164.695312 97.457031 164.449219 97.625 164.195312 C 95.910156 163.628906 91.277344 162.886719 85.210938 168.175781 C 83.671875 169.515625 81.355469 167.792969 82.660156 165.46875 C 83.460938 164.03125 84.78125 162.035156 86.386719 159.886719 C 89.71875 155.417969 94.273438 150.285156 97.980469 148.152344 C 99.910156 147.042969 101.734375 146.347656 103.421875 145.949219 C 101.320312 136.363281 94.371094 129.136719 85.910156 128.269531 C 82.105469 128.597656 78.558594 129.832031 75.480469 131.761719 C 77.539062 132.542969 79.640625 134.222656 79.816406 137.808594 C 79.984375 141.285156 80.953125 142.96875 81.539062 144.023438 C 82.957031 146.570312 86.085938 147.980469 87.417969 150.816406 C 88.746094 153.65625 84.707031 157.777344 80.246094 154.835938 C 75.785156 151.894531 75.222656 153.386719 73.175781 154.625 C 70.824219 156.046875 67.191406 156.386719 64.5625 155.496094 C 66.136719 166.351562 74.957031 174.824219 85.910156 175.769531 C 89.140625 175.4375 92.148438 174.183594 94.753906 172.21875 "/>
</g>
<g clip-path="url(#clip91)" clip-rule="nonzero">
<path style=" stroke:none;fill-rule:nonzero;fill:rgb(50.979614%,78.039551%,14.118958%);fill-opacity:1;" d="M 73.175781 154.625 C 75.222656 153.386719 75.785156 151.894531 80.246094 154.835938 C 84.707031 157.777344 88.746094 153.65625 87.417969 150.816406 C 86.085938 147.980469 82.957031 146.570312 81.539062 144.023438 C 80.953125 142.96875 79.984375 141.285156 79.816406 137.808594 C 79.640625 134.222656 77.539062 132.542969 75.480469 131.761719 C 68.777344 135.972656 64.3125 143.46875 64.3125 152.019531 C 64.3125 153.199219 64.398438 154.359375 64.5625 155.496094 C 67.191406 156.386719 70.824219 156.046875 73.175781 154.625 "/>
</g>
<path style=" stroke:none;fill-rule:nonzero;fill:rgb(50.979614%,78.039551%,14.118958%);fill-opacity:1;" d="M 80.195312 165.777344 C 81.800781 162.535156 77.132812 160.472656 75.664062 160.472656 C 73.179688 160.472656 72.449219 161.796875 73.035156 164.300781 C 73.617188 166.808594 78.585938 169.019531 80.195312 165.777344 "/>
<path style=" stroke:none;fill-rule:nonzero;fill:rgb(96.078491%,47.839355%,7.839966%);fill-opacity:1;" d="M 99.082031 174.058594 C 96.132812 176.046875 93.566406 177.566406 93.148438 177.144531 C 92.867188 176.863281 93.484375 175.785156 94.65625 174.269531 C 95.238281 173.515625 95.957031 172.65625 96.777344 171.730469 L 95.792969 170.738281 L 94.753906 172.21875 L 92.507812 175.417969 L 90.496094 178.277344 L 90.492188 178.28125 C 89.992188 178.785156 91.285156 180.914062 93.382812 183.027344 C 95.480469 185.144531 97.585938 186.449219 98.089844 185.941406 L 105.566406 180.597656 L 99.082031 174.058594 "/>
<path style=" stroke:none;fill-rule:nonzero;fill:rgb(85.879517%,22.349548%,14.118958%);fill-opacity:1;" d="M 100.230469 173.273438 C 99.84375 173.539062 99.460938 173.800781 99.082031 174.058594 L 105.566406 180.597656 L 106.695312 179.792969 L 101.644531 174.699219 L 100.230469 173.273438 "/>
<path style=" stroke:none;fill-rule:nonzero;fill:rgb(85.879517%,22.349548%,14.118958%);fill-opacity:1;" d="M 96.59375 169.601562 L 95.792969 170.738281 L 96.777344 171.730469 C 97.070312 171.398438 97.371094 171.058594 97.691406 170.710938 L 96.59375 169.601562 "/>
<path style=" stroke:none;fill-rule:nonzero;fill:rgb(94.509888%,27.059937%,23.919678%);fill-opacity:1;" d="M 125.9375 167.417969 C 126.851562 170.464844 127.277344 175.378906 123.945312 181.273438 C 122.425781 183.957031 119.375 187.082031 116.136719 189.878906 C 120.5625 186.515625 125.644531 181.925781 127.757812 178.1875 C 131.375 171.796875 130.566406 166.558594 129.511719 163.605469 C 128.328125 164.953125 127.128906 166.222656 125.9375 167.417969 "/>
<path style=" stroke:none;fill-rule:nonzero;fill:rgb(78.42865%,9.01947%,11.759949%);fill-opacity:1;" d="M 123.945312 181.273438 C 127.277344 175.378906 126.851562 170.464844 125.9375 167.417969 C 120.585938 172.777344 115.34375 176.59375 111.9375 178.828125 C 112.472656 180.746094 112.890625 185.25 107.910156 191.070312 C 106.578125 192.621094 108.285156 194.957031 110.59375 193.644531 C 112.015625 192.832031 114 191.496094 116.136719 189.878906 C 119.375 187.082031 122.425781 183.957031 123.945312 181.273438 "/>
<path style=" stroke:none;fill-rule:nonzero;fill:rgb(94.509888%,27.059937%,23.919678%);fill-opacity:1;" d="M 103.421875 145.949219 C 101.734375 146.347656 99.910156 147.042969 97.980469 148.152344 C 94.273438 150.285156 89.71875 155.417969 86.386719 159.886719 C 89.160156 156.613281 92.261719 153.53125 94.921875 152 C 100.96875 148.523438 105.972656 149.105469 108.964844 150.085938 C 110.148438 148.890625 111.40625 147.6875 112.738281 146.496094 C 112.183594 146.28125 111.535156 146.070312 110.800781 145.894531 C 108.867188 145.4375 106.351562 145.25 103.421875 145.949219 "/>
<path style=" stroke:none;fill-rule:nonzero;fill:rgb(78.42865%,9.01947%,11.759949%);fill-opacity:1;" d="M 105.226562 154.121094 C 106.375 152.800781 107.621094 151.449219 108.964844 150.085938 C 105.972656 149.105469 100.96875 148.523438 94.921875 152 C 92.261719 153.53125 89.160156 156.613281 86.386719 159.886719 C 84.78125 162.035156 83.460938 164.03125 82.660156 165.46875 C 81.355469 167.792969 83.671875 169.515625 85.210938 168.175781 C 91.277344 162.886719 95.910156 163.628906 97.625 164.195312 C 99.296875 161.609375 101.835938 158.015625 105.226562 154.121094 "/>
<path style=" stroke:none;fill-rule:nonzero;fill:rgb(38.42926%,76.858521%,94.119263%);fill-opacity:1;" d="M 100.230469 168.027344 C 103.636719 164.539062 107.617188 160.898438 110.617188 158.757812 C 112.191406 157.636719 113.542969 156.777344 114.710938 156.109375 L 105.226562 154.121094 C 101.835938 158.015625 99.296875 161.609375 97.625 164.195312 C 97.457031 164.449219 97.304688 164.695312 97.15625 164.929688 L 100.230469 168.027344 "/>
<path style=" stroke:none;fill-rule:nonzero;fill:rgb(38.42926%,76.858521%,94.119263%);fill-opacity:1;" d="M 125.9375 167.417969 C 127.128906 166.222656 128.328125 164.953125 129.511719 163.605469 C 130.558594 162.414062 131.589844 161.167969 132.601562 159.859375 L 118.824219 156.972656 L 118.027344 157.777344 L 109.03125 166.847656 C 109.03125 166.847656 106.40625 168.863281 103.285156 171.113281 L 111.328125 179.222656 C 111.523438 179.097656 111.726562 178.964844 111.9375 178.828125 C 115.34375 176.59375 120.585938 172.777344 125.9375 167.417969 "/>
<path style=" stroke:none;fill-rule:nonzero;fill:rgb(21.179199%,69.018555%,87.838745%);fill-opacity:1;" d="M 123.28125 142.457031 C 123.367188 142.371094 123.460938 142.292969 123.550781 142.210938 C 123.632812 142.121094 123.710938 142.027344 123.796875 141.9375 C 126.648438 139.058594 131.273438 139.058594 134.121094 141.9375 C 136.972656 144.8125 136.972656 149.476562 134.121094 152.351562 C 134.035156 152.4375 133.941406 152.515625 133.851562 152.597656 C 133.769531 152.6875 133.695312 152.78125 133.605469 152.871094 C 130.753906 155.746094 126.132812 155.746094 123.28125 152.871094 C 120.429688 149.996094 120.429688 145.332031 123.28125 142.457031 Z M 108.964844 150.085938 C 107.621094 151.449219 106.375 152.800781 105.226562 154.121094 L 114.710938 156.109375 C 120.1875 152.984375 121.539062 154.234375 121.539062 154.234375 L 118.824219 156.972656 L 132.601562 159.859375 C 136.089844 155.351562 139.289062 150.144531 141.667969 144.253906 C 139.277344 143.910156 136.976562 142.816406 135.136719 140.960938 C 133.285156 139.089844 132.195312 136.742188 131.867188 134.308594 C 124.359375 137.386719 117.972656 141.832031 112.738281 146.496094 C 111.40625 147.6875 110.148438 148.890625 108.964844 150.085938 "/>
<path style=" stroke:none;fill-rule:nonzero;fill:rgb(23.529053%,63.139343%,81.959534%);fill-opacity:1;" d="M 141.667969 144.253906 C 141.828125 143.851562 141.984375 143.445312 142.140625 143.039062 C 139.929688 142.726562 137.796875 141.710938 136.09375 139.996094 C 134.375 138.265625 133.371094 136.085938 133.070312 133.832031 C 132.664062 133.988281 132.265625 134.148438 131.867188 134.308594 C 132.195312 136.742188 133.285156 139.089844 135.136719 140.960938 C 136.976562 142.816406 139.277344 143.910156 141.667969 144.253906 "/>
<path style=" stroke:none;fill-rule:nonzero;fill:rgb(94.119263%,21.958923%,21.958923%);fill-opacity:1;" d="M 136.09375 139.996094 C 137.796875 141.710938 139.929688 142.726562 142.140625 143.039062 C 142.3125 142.582031 142.480469 142.121094 142.644531 141.65625 C 140.652344 141.347656 138.738281 140.421875 137.207031 138.875 C 135.65625 137.3125 134.734375 135.355469 134.4375 133.328125 C 133.976562 133.492188 133.523438 133.660156 133.070312 133.832031 C 133.371094 136.085938 134.375 138.265625 136.09375 139.996094 "/>
<g clip-path="url(#clip92)" clip-rule="nonzero">
<path style=" stroke:none;fill-rule:nonzero;fill:rgb(92.939758%,10.978699%,14.118958%);fill-opacity:1;" d="M 137.207031 138.875 C 138.738281 140.421875 140.652344 141.347656 142.644531 141.65625 C 143.847656 138.207031 144.769531 134.542969 145.300781 130.660156 C 141.464844 131.195312 137.84375 132.117188 134.4375 133.328125 C 134.734375 135.355469 135.65625 137.3125 137.207031 138.875 "/>
</g>
<path style=" stroke:none;fill-rule:nonzero;fill:rgb(21.179199%,69.018555%,87.838745%);fill-opacity:1;" d="M 103.285156 171.113281 C 102.296875 171.828125 101.253906 172.566406 100.230469 173.273438 L 101.644531 174.699219 L 106.695312 179.792969 L 108.066406 181.179688 C 108.066406 181.179688 109.304688 180.523438 111.328125 179.222656 L 103.285156 171.113281 "/>
<path style=" stroke:none;fill-rule:nonzero;fill:rgb(21.179199%,69.018555%,87.838745%);fill-opacity:1;" d="M 97.691406 170.710938 C 98.480469 169.847656 99.335938 168.941406 100.230469 168.027344 L 97.15625 164.929688 C 95.867188 166.96875 95.214844 168.214844 95.214844 168.214844 L 96.59375 169.601562 L 97.691406 170.710938 "/>
<path style=" stroke:none;fill-rule:nonzero;fill:rgb(28.239441%,61.178589%,78.819275%);fill-opacity:1;" d="M 133.605469 152.871094 C 133.695312 152.78125 133.769531 152.6875 133.851562 152.597656 C 130.988281 155.214844 126.5625 155.140625 123.796875 152.351562 C 121.035156 149.5625 120.957031 145.101562 123.550781 142.210938 C 123.460938 142.292969 123.367188 142.371094 123.28125 142.457031 C 120.429688 145.332031 120.429688 149.996094 123.28125 152.871094 C 126.132812 155.746094 130.753906 155.746094 133.605469 152.871094 "/>
<path style=" stroke:none;fill-rule:nonzero;fill:rgb(94.509888%,27.059937%,23.919678%);fill-opacity:1;" d="M 114.710938 156.109375 C 113.542969 156.777344 112.191406 157.636719 110.617188 158.757812 C 107.617188 160.898438 103.636719 164.539062 100.230469 168.027344 C 99.335938 168.941406 98.480469 169.847656 97.691406 170.710938 C 97.371094 171.058594 97.070312 171.398438 96.777344 171.730469 C 95.957031 172.65625 95.238281 173.515625 94.65625 174.269531 C 98.4375 170.140625 103.703125 165.132812 107.449219 162.460938 C 114.417969 157.496094 117.15625 157.523438 118.027344 157.777344 L 118.824219 156.972656 L 121.539062 154.234375 C 121.539062 154.234375 120.1875 152.984375 114.710938 156.109375 "/>
<path style=" stroke:none;fill-rule:nonzero;fill:rgb(73.728943%,8.239746%,10.5896%);fill-opacity:1;" d="M 107.449219 162.460938 C 103.703125 165.132812 98.4375 170.140625 94.65625 174.269531 C 93.484375 175.785156 92.867188 176.863281 93.148438 177.144531 C 93.566406 177.566406 96.132812 176.046875 99.082031 174.058594 C 99.460938 173.800781 99.84375 173.539062 100.230469 173.273438 C 101.253906 172.566406 102.296875 171.828125 103.285156 171.113281 C 106.40625 168.863281 109.03125 166.847656 109.03125 166.847656 L 118.027344 157.777344 C 117.15625 157.523438 114.417969 157.496094 107.449219 162.460938 "/>
<path style=" stroke:none;fill-rule:nonzero;fill:rgb(45.098877%,81.17981%,93.728638%);fill-opacity:1;" d="M 124.796875 151.34375 C 122.496094 149.023438 122.496094 145.261719 124.796875 142.945312 C 127.097656 140.625 130.824219 140.625 133.125 142.945312 C 135.425781 145.261719 135.425781 149.023438 133.125 151.34375 C 130.824219 153.664062 127.097656 153.664062 124.796875 151.34375 Z M 123.796875 152.351562 C 126.5625 155.140625 130.988281 155.214844 133.851562 152.597656 C 133.941406 152.515625 134.035156 152.4375 134.121094 152.351562 C 136.972656 149.476562 136.972656 144.8125 134.121094 141.9375 C 131.273438 139.058594 126.648438 139.058594 123.796875 141.9375 C 123.710938 142.027344 123.632812 142.121094 123.550781 142.210938 C 120.957031 145.101562 121.035156 149.5625 123.796875 152.351562 "/>
<path style=" stroke:none;fill-rule:nonzero;fill:rgb(23.529053%,63.139343%,81.959534%);fill-opacity:1;" d="M 132.585938 150.800781 C 130.582031 152.820312 127.335938 152.820312 125.335938 150.800781 C 123.738281 149.1875 123.417969 146.777344 124.371094 144.84375 C 124.613281 144.355469 124.929688 143.894531 125.335938 143.488281 C 127.335938 141.46875 130.582031 141.46875 132.585938 143.488281 C 133.5 144.410156 133.992188 145.597656 134.070312 146.804688 C 134.164062 148.238281 133.671875 149.703125 132.585938 150.800781 Z M 133.125 142.945312 C 130.824219 140.625 127.097656 140.625 124.796875 142.945312 C 122.496094 145.261719 122.496094 149.023438 124.796875 151.34375 C 127.097656 153.664062 130.824219 153.664062 133.125 151.34375 C 135.425781 149.023438 135.425781 145.261719 133.125 142.945312 "/>
<path style=" stroke:none;fill-rule:nonzero;fill:rgb(48.239136%,83.139038%,96.859741%);fill-opacity:1;" d="M 134.070312 146.804688 C 131.316406 148.597656 127.605469 148.28125 125.195312 145.847656 C 124.882812 145.535156 124.613281 145.195312 124.371094 144.84375 C 123.417969 146.777344 123.738281 149.1875 125.335938 150.800781 C 127.335938 152.820312 130.582031 152.820312 132.585938 150.800781 C 133.671875 149.703125 134.164062 148.238281 134.070312 146.804688 "/>
<path style=" stroke:none;fill-rule:nonzero;fill:rgb(74.119568%,91.758728%,98.429871%);fill-opacity:1;" d="M 134.070312 146.804688 C 133.992188 145.597656 133.5 144.410156 132.585938 143.488281 C 130.582031 141.46875 127.335938 141.46875 125.335938 143.488281 C 124.929688 143.894531 124.613281 144.355469 124.371094 144.84375 C 124.613281 145.195312 124.882812 145.535156 125.195312 145.847656 C 127.605469 148.28125 131.316406 148.597656 134.070312 146.804688 "/>
<path style=" stroke:none;fill-rule:nonzero;fill:rgb(78.42865%,9.01947%,11.759949%);fill-opacity:1;" d="M 92.816406 190.347656 C 94.175781 192.140625 94.355469 193.027344 93.84375 194.488281 C 93.84375 194.488281 95.171875 192.753906 94.804688 190.765625 L 92.816406 190.347656 "/>
<path style=" stroke:none;fill-rule:nonzero;fill:rgb(78.42865%,9.01947%,11.759949%);fill-opacity:1;" d="M 90.871094 189.941406 L 79.90625 187.640625 C 79.351562 187.875 78.621094 188.113281 78.070312 188.574219 C 75.691406 190.609375 77.578125 193.101562 77.53125 193.105469 C 77.535156 193.109375 77.453125 192.082031 78.433594 190.953125 C 80.074219 189.109375 82.09375 191.839844 79.835938 192.664062 C 78.886719 193.007812 77.40625 194 77.871094 196 C 78.574219 199.796875 74.882812 199.671875 74.945312 199.730469 C 77.882812 201.65625 80.359375 200.105469 80.828125 198.578125 C 81.238281 197.128906 82.332031 196.191406 83.03125 196.898438 C 84.234375 198.113281 81.25 199.328125 81.269531 199.347656 C 82.503906 200.503906 84.703125 199.675781 85.421875 198.039062 C 86.277344 196.09375 87.414062 194.695312 88.160156 195.550781 C 89.328125 196.894531 85.863281 198.246094 85.875 198.257812 C 88.933594 199.785156 95.027344 195.742188 91.84375 191.175781 C 91.523438 190.710938 91.179688 190.320312 90.871094 189.941406 "/>
<path style=" stroke:none;fill-rule:nonzero;fill:rgb(78.42865%,9.01947%,11.759949%);fill-opacity:1;" d="M 77.148438 193.367188 C 77.132812 193.355469 75.328125 193.875 75.546875 195.660156 C 75.667969 196.730469 76.1875 197.664062 75.691406 198.207031 C 75.671875 198.199219 77.164062 197.671875 76.621094 195.578125 C 76.242188 194.242188 77.140625 193.367188 77.148438 193.367188 "/>
<path style=" stroke:none;fill-rule:nonzero;fill:rgb(78.42865%,9.01947%,11.759949%);fill-opacity:1;" d="M 78.667969 187.484375 C 78.667969 187.484375 78.695312 187.449219 78.738281 187.398438 L 78.703125 187.390625 C 78.6875 187.449219 78.675781 187.484375 78.667969 187.484375 "/>
<path style=" stroke:none;fill-rule:nonzero;fill:rgb(65.098572%,7.058716%,9.01947%);fill-opacity:1;" d="M 93.84375 188.828125 C 91.917969 186.625 92.179688 185.578125 92.515625 185.082031 C 92.515625 185.082031 89.996094 186.890625 92.050781 189.378906 C 92.339844 189.730469 92.59375 190.050781 92.816406 190.347656 L 94.804688 190.765625 C 94.6875 190.128906 94.402344 189.46875 93.84375 188.828125 "/>
<path style=" stroke:none;fill-rule:nonzero;fill:rgb(65.098572%,7.058716%,9.01947%);fill-opacity:1;" d="M 89.910156 188.082031 C 89.511719 185.152344 92.617188 183.917969 92.617188 183.917969 C 92.617188 183.917969 89.023438 180.300781 84.371094 181.429688 C 79.726562 182.558594 78.875 186.71875 78.703125 187.390625 L 78.738281 187.398438 C 79.042969 187.039062 80.238281 185.714844 80.660156 186.695312 C 80.863281 187.164062 80.476562 187.398438 79.90625 187.640625 L 90.871094 189.941406 C 90.398438 189.355469 90.007812 188.804688 89.910156 188.082031 "/>
</g>
</svg>
