<?xml version="1.0" encoding="UTF-8"?>
<svg xmlns="http://www.w3.org/2000/svg" xmlns:xlink="http://www.w3.org/1999/xlink" width="1440pt" height="359.999987pt" viewBox="0 0 1440 359.999987" version="1.2">
<defs>
<clipPath id="clip1">
  <path d="M 160 47 L 177 47 L 177 73 L 160 73 Z M 160 47 "/>
</clipPath>
<clipPath id="clip2">
  <path d="M 112.414062 9.777344 L 179.386719 -0.0273438 L 190.21875 73.960938 L 123.242188 83.765625 Z M 112.414062 9.777344 "/>
</clipPath>
<clipPath id="clip3">
  <path d="M 112.414062 9.777344 L 179.386719 -0.0273438 L 190.21875 73.960938 L 123.242188 83.765625 Z M 112.414062 9.777344 "/>
</clipPath>
<clipPath id="clip4">
  <path d="M 112.414062 9.777344 L 179.5625 -0.0507812 L 190.417969 74.109375 L 123.269531 83.941406 Z M 112.414062 9.777344 "/>
</clipPath>
<clipPath id="clip5">
  <path d="M 146 53 L 164 53 L 164 79 L 146 79 Z M 146 53 "/>
</clipPath>
<clipPath id="clip6">
  <path d="M 112.414062 9.777344 L 179.386719 -0.0273438 L 190.21875 73.960938 L 123.242188 83.765625 Z M 112.414062 9.777344 "/>
</clipPath>
<clipPath id="clip7">
  <path d="M 112.414062 9.777344 L 179.386719 -0.0273438 L 190.21875 73.960938 L 123.242188 83.765625 Z M 112.414062 9.777344 "/>
</clipPath>
<clipPath id="clip8">
  <path d="M 112.414062 9.777344 L 179.5625 -0.0507812 L 190.417969 74.109375 L 123.269531 83.941406 Z M 112.414062 9.777344 "/>
</clipPath>
<clipPath id="clip9">
  <path d="M 124 45 L 133 45 L 133 53 L 124 53 Z M 124 45 "/>
</clipPath>
<clipPath id="clip10">
  <path d="M 112.414062 9.777344 L 179.386719 -0.0273438 L 190.21875 73.960938 L 123.242188 83.765625 Z M 112.414062 9.777344 "/>
</clipPath>
<clipPath id="clip11">
  <path d="M 112.414062 9.777344 L 179.386719 -0.0273438 L 190.21875 73.960938 L 123.242188 83.765625 Z M 112.414062 9.777344 "/>
</clipPath>
<clipPath id="clip12">
  <path d="M 112.414062 9.777344 L 179.5625 -0.0507812 L 190.417969 74.109375 L 123.269531 83.941406 Z M 112.414062 9.777344 "/>
</clipPath>
<clipPath id="clip13">
  <path d="M 136 17 L 170 17 L 170 56 L 136 56 Z M 136 17 "/>
</clipPath>
<clipPath id="clip14">
  <path d="M 112.414062 9.777344 L 179.386719 -0.0273438 L 190.21875 73.960938 L 123.242188 83.765625 Z M 112.414062 9.777344 "/>
</clipPath>
<clipPath id="clip15">
  <path d="M 112.414062 9.777344 L 179.386719 -0.0273438 L 190.21875 73.960938 L 123.242188 83.765625 Z M 112.414062 9.777344 "/>
</clipPath>
<clipPath id="clip16">
  <path d="M 112.414062 9.777344 L 179.5625 -0.0507812 L 190.417969 74.109375 L 123.269531 83.941406 Z M 112.414062 9.777344 "/>
</clipPath>
<clipPath id="clip17">
  <path d="M 126 26 L 140 26 L 140 47 L 126 47 Z M 126 26 "/>
</clipPath>
<clipPath id="clip18">
  <path d="M 112.414062 9.777344 L 179.386719 -0.0273438 L 190.21875 73.960938 L 123.242188 83.765625 Z M 112.414062 9.777344 "/>
</clipPath>
<clipPath id="clip19">
  <path d="M 112.414062 9.777344 L 179.386719 -0.0273438 L 190.21875 73.960938 L 123.242188 83.765625 Z M 112.414062 9.777344 "/>
</clipPath>
<clipPath id="clip20">
  <path d="M 112.414062 9.777344 L 179.5625 -0.0507812 L 190.417969 74.109375 L 123.269531 83.941406 Z M 112.414062 9.777344 "/>
</clipPath>
<clipPath id="clip21">
  <path d="M 172 26 L 181 26 L 181 36 L 172 36 Z M 172 26 "/>
</clipPath>
<clipPath id="clip22">
  <path d="M 112.414062 9.777344 L 179.386719 -0.0273438 L 190.21875 73.960938 L 123.242188 83.765625 Z M 112.414062 9.777344 "/>
</clipPath>
<clipPath id="clip23">
  <path d="M 112.414062 9.777344 L 179.386719 -0.0273438 L 190.21875 73.960938 L 123.242188 83.765625 Z M 112.414062 9.777344 "/>
</clipPath>
<clipPath id="clip24">
  <path d="M 112.414062 9.777344 L 179.5625 -0.0507812 L 190.417969 74.109375 L 123.269531 83.941406 Z M 112.414062 9.777344 "/>
</clipPath>
<clipPath id="clip25">
  <path d="M 155 17 L 176 17 L 176 33 L 155 33 Z M 155 17 "/>
</clipPath>
<clipPath id="clip26">
  <path d="M 112.414062 9.777344 L 179.386719 -0.0273438 L 190.21875 73.960938 L 123.242188 83.765625 Z M 112.414062 9.777344 "/>
</clipPath>
<clipPath id="clip27">
  <path d="M 112.414062 9.777344 L 179.386719 -0.0273438 L 190.21875 73.960938 L 123.242188 83.765625 Z M 112.414062 9.777344 "/>
</clipPath>
<clipPath id="clip28">
  <path d="M 112.414062 9.777344 L 179.5625 -0.0507812 L 190.417969 74.109375 L 123.269531 83.941406 Z M 112.414062 9.777344 "/>
</clipPath>
<clipPath id="clip29">
  <path d="M 176 13 L 182 13 L 182 18 L 176 18 Z M 176 13 "/>
</clipPath>
<clipPath id="clip30">
  <path d="M 112.414062 9.777344 L 179.386719 -0.0273438 L 190.21875 73.960938 L 123.242188 83.765625 Z M 112.414062 9.777344 "/>
</clipPath>
<clipPath id="clip31">
  <path d="M 112.414062 9.777344 L 179.386719 -0.0273438 L 190.21875 73.960938 L 123.242188 83.765625 Z M 112.414062 9.777344 "/>
</clipPath>
<clipPath id="clip32">
  <path d="M 112.414062 9.777344 L 179.5625 -0.0507812 L 190.417969 74.109375 L 123.269531 83.941406 Z M 112.414062 9.777344 "/>
</clipPath>
<clipPath id="clip33">
  <path d="M 181 51 L 188 51 L 188 58 L 181 58 Z M 181 51 "/>
</clipPath>
<clipPath id="clip34">
  <path d="M 112.414062 9.777344 L 179.386719 -0.0273438 L 190.21875 73.960938 L 123.242188 83.765625 Z M 112.414062 9.777344 "/>
</clipPath>
<clipPath id="clip35">
  <path d="M 112.414062 9.777344 L 179.386719 -0.0273438 L 190.21875 73.960938 L 123.242188 83.765625 Z M 112.414062 9.777344 "/>
</clipPath>
<clipPath id="clip36">
  <path d="M 112.414062 9.777344 L 179.5625 -0.0507812 L 190.417969 74.109375 L 123.269531 83.941406 Z M 112.414062 9.777344 "/>
</clipPath>
<clipPath id="clip37">
  <path d="M 120 14 L 126 14 L 126 19 L 120 19 Z M 120 14 "/>
</clipPath>
<clipPath id="clip38">
  <path d="M 112.414062 9.777344 L 179.386719 -0.0273438 L 190.21875 73.960938 L 123.242188 83.765625 Z M 112.414062 9.777344 "/>
</clipPath>
<clipPath id="clip39">
  <path d="M 112.414062 9.777344 L 179.386719 -0.0273438 L 190.21875 73.960938 L 123.242188 83.765625 Z M 112.414062 9.777344 "/>
</clipPath>
<clipPath id="clip40">
  <path d="M 112.414062 9.777344 L 179.5625 -0.0507812 L 190.417969 74.109375 L 123.269531 83.941406 Z M 112.414062 9.777344 "/>
</clipPath>
<clipPath id="clip41">
  <path d="M 125 23 L 129 23 L 129 27 L 125 27 Z M 125 23 "/>
</clipPath>
<clipPath id="clip42">
  <path d="M 112.414062 9.777344 L 179.386719 -0.0273438 L 190.21875 73.960938 L 123.242188 83.765625 Z M 112.414062 9.777344 "/>
</clipPath>
<clipPath id="clip43">
  <path d="M 112.414062 9.777344 L 179.386719 -0.0273438 L 190.21875 73.960938 L 123.242188 83.765625 Z M 112.414062 9.777344 "/>
</clipPath>
<clipPath id="clip44">
  <path d="M 112.414062 9.777344 L 179.5625 -0.0507812 L 190.417969 74.109375 L 123.269531 83.941406 Z M 112.414062 9.777344 "/>
</clipPath>
<clipPath id="clip45">
  <path d="M 116 32 L 120 32 L 120 36 L 116 36 Z M 116 32 "/>
</clipPath>
<clipPath id="clip46">
  <path d="M 112.414062 9.777344 L 179.386719 -0.0273438 L 190.21875 73.960938 L 123.242188 83.765625 Z M 112.414062 9.777344 "/>
</clipPath>
<clipPath id="clip47">
  <path d="M 112.414062 9.777344 L 179.386719 -0.0273438 L 190.21875 73.960938 L 123.242188 83.765625 Z M 112.414062 9.777344 "/>
</clipPath>
<clipPath id="clip48">
  <path d="M 112.414062 9.777344 L 179.5625 -0.0507812 L 190.417969 74.109375 L 123.269531 83.941406 Z M 112.414062 9.777344 "/>
</clipPath>
<clipPath id="clip49">
  <path d="M 138 69 L 142 69 L 142 74 L 138 74 Z M 138 69 "/>
</clipPath>
<clipPath id="clip50">
  <path d="M 112.414062 9.777344 L 179.386719 -0.0273438 L 190.21875 73.960938 L 123.242188 83.765625 Z M 112.414062 9.777344 "/>
</clipPath>
<clipPath id="clip51">
  <path d="M 112.414062 9.777344 L 179.386719 -0.0273438 L 190.21875 73.960938 L 123.242188 83.765625 Z M 112.414062 9.777344 "/>
</clipPath>
<clipPath id="clip52">
  <path d="M 112.414062 9.777344 L 179.5625 -0.0507812 L 190.417969 74.109375 L 123.269531 83.941406 Z M 112.414062 9.777344 "/>
</clipPath>
<clipPath id="clip53">
  <path d="M 124 62 L 129 62 L 129 68 L 124 68 Z M 124 62 "/>
</clipPath>
<clipPath id="clip54">
  <path d="M 112.414062 9.777344 L 179.386719 -0.0273438 L 190.21875 73.960938 L 123.242188 83.765625 Z M 112.414062 9.777344 "/>
</clipPath>
<clipPath id="clip55">
  <path d="M 112.414062 9.777344 L 179.386719 -0.0273438 L 190.21875 73.960938 L 123.242188 83.765625 Z M 112.414062 9.777344 "/>
</clipPath>
<clipPath id="clip56">
  <path d="M 112.414062 9.777344 L 179.5625 -0.0507812 L 190.417969 74.109375 L 123.269531 83.941406 Z M 112.414062 9.777344 "/>
</clipPath>
<clipPath id="clip57">
  <path d="M 163 9 L 169 9 L 169 14 L 163 14 Z M 163 9 "/>
</clipPath>
<clipPath id="clip58">
  <path d="M 112.414062 9.777344 L 179.386719 -0.0273438 L 190.21875 73.960938 L 123.242188 83.765625 Z M 112.414062 9.777344 "/>
</clipPath>
<clipPath id="clip59">
  <path d="M 112.414062 9.777344 L 179.386719 -0.0273438 L 190.21875 73.960938 L 123.242188 83.765625 Z M 112.414062 9.777344 "/>
</clipPath>
<clipPath id="clip60">
  <path d="M 112.414062 9.777344 L 179.5625 -0.0507812 L 190.417969 74.109375 L 123.269531 83.941406 Z M 112.414062 9.777344 "/>
</clipPath>
<clipPath id="clip61">
  <path d="M 136 17 L 155 17 L 155 28 L 136 28 Z M 136 17 "/>
</clipPath>
<clipPath id="clip62">
  <path d="M 112.414062 9.777344 L 179.386719 -0.0273438 L 190.21875 73.960938 L 123.242188 83.765625 Z M 112.414062 9.777344 "/>
</clipPath>
<clipPath id="clip63">
  <path d="M 112.414062 9.777344 L 179.386719 -0.0273438 L 190.21875 73.960938 L 123.242188 83.765625 Z M 112.414062 9.777344 "/>
</clipPath>
<clipPath id="clip64">
  <path d="M 112.414062 9.777344 L 179.5625 -0.0507812 L 190.417969 74.109375 L 123.269531 83.941406 Z M 112.414062 9.777344 "/>
</clipPath>
<clipPath id="clip65">
  <path d="M 133 6 L 153 6 L 153 26 L 133 26 Z M 133 6 "/>
</clipPath>
<clipPath id="clip66">
  <path d="M 112.414062 9.777344 L 179.386719 -0.0273438 L 190.21875 73.960938 L 123.242188 83.765625 Z M 112.414062 9.777344 "/>
</clipPath>
<clipPath id="clip67">
  <path d="M 112.414062 9.777344 L 179.386719 -0.0273438 L 190.21875 73.960938 L 123.242188 83.765625 Z M 112.414062 9.777344 "/>
</clipPath>
<clipPath id="clip68">
  <path d="M 112.414062 9.777344 L 179.5625 -0.0507812 L 190.417969 74.109375 L 123.269531 83.941406 Z M 112.414062 9.777344 "/>
</clipPath>
<clipPath id="clip69">
  <path d="M 133 8 L 153 8 L 153 24 L 133 24 Z M 133 8 "/>
</clipPath>
<clipPath id="clip70">
  <path d="M 112.414062 9.777344 L 179.386719 -0.0273438 L 190.21875 73.960938 L 123.242188 83.765625 Z M 112.414062 9.777344 "/>
</clipPath>
<clipPath id="clip71">
  <path d="M 112.414062 9.777344 L 179.386719 -0.0273438 L 190.21875 73.960938 L 123.242188 83.765625 Z M 112.414062 9.777344 "/>
</clipPath>
<clipPath id="clip72">
  <path d="M 112.414062 9.777344 L 179.5625 -0.0507812 L 190.417969 74.109375 L 123.269531 83.941406 Z M 112.414062 9.777344 "/>
</clipPath>
<clipPath id="clip73">
  <path d="M 144 27 L 156 27 L 156 38 L 144 38 Z M 144 27 "/>
</clipPath>
<clipPath id="clip74">
  <path d="M 112.414062 9.777344 L 179.386719 -0.0273438 L 190.21875 73.960938 L 123.242188 83.765625 Z M 112.414062 9.777344 "/>
</clipPath>
<clipPath id="clip75">
  <path d="M 112.414062 9.777344 L 179.386719 -0.0273438 L 190.21875 73.960938 L 123.242188 83.765625 Z M 112.414062 9.777344 "/>
</clipPath>
<clipPath id="clip76">
  <path d="M 112.414062 9.777344 L 179.5625 -0.0507812 L 190.417969 74.109375 L 123.269531 83.941406 Z M 112.414062 9.777344 "/>
</clipPath>
<clipPath id="clip77">
  <path d="M 158 18 L 164 18 L 164 22 L 158 22 Z M 158 18 "/>
</clipPath>
<clipPath id="clip78">
  <path d="M 112.414062 9.777344 L 179.386719 -0.0273438 L 190.21875 73.960938 L 123.242188 83.765625 Z M 112.414062 9.777344 "/>
</clipPath>
<clipPath id="clip79">
  <path d="M 112.414062 9.777344 L 179.386719 -0.0273438 L 190.21875 73.960938 L 123.242188 83.765625 Z M 112.414062 9.777344 "/>
</clipPath>
<clipPath id="clip80">
  <path d="M 112.414062 9.777344 L 179.5625 -0.0507812 L 190.417969 74.109375 L 123.269531 83.941406 Z M 112.414062 9.777344 "/>
</clipPath>
<clipPath id="clip81">
  <path d="M 145 52 L 159 52 L 159 57 L 145 57 Z M 145 52 "/>
</clipPath>
<clipPath id="clip82">
  <path d="M 112.414062 9.777344 L 179.386719 -0.0273438 L 190.21875 73.960938 L 123.242188 83.765625 Z M 112.414062 9.777344 "/>
</clipPath>
<clipPath id="clip83">
  <path d="M 112.414062 9.777344 L 179.386719 -0.0273438 L 190.21875 73.960938 L 123.242188 83.765625 Z M 112.414062 9.777344 "/>
</clipPath>
<clipPath id="clip84">
  <path d="M 112.414062 9.777344 L 179.5625 -0.0507812 L 190.417969 74.109375 L 123.269531 83.941406 Z M 112.414062 9.777344 "/>
</clipPath>
<clipPath id="clip85">
  <path d="M 159 46 L 171 46 L 171 55 L 159 55 Z M 159 46 "/>
</clipPath>
<clipPath id="clip86">
  <path d="M 112.414062 9.777344 L 179.386719 -0.0273438 L 190.21875 73.960938 L 123.242188 83.765625 Z M 112.414062 9.777344 "/>
</clipPath>
<clipPath id="clip87">
  <path d="M 112.414062 9.777344 L 179.386719 -0.0273438 L 190.21875 73.960938 L 123.242188 83.765625 Z M 112.414062 9.777344 "/>
</clipPath>
<clipPath id="clip88">
  <path d="M 112.414062 9.777344 L 179.5625 -0.0507812 L 190.417969 74.109375 L 123.269531 83.941406 Z M 112.414062 9.777344 "/>
</clipPath>
<clipPath id="clip89">
  <path d="M 79 73.191406 L 105 73.191406 L 105 91 L 79 91 Z M 79 73.191406 "/>
</clipPath>
<clipPath id="clip90">
  <path d="M 58.320312 73.191406 L 98 73.191406 L 98 121 L 58.320312 121 Z M 58.320312 73.191406 "/>
</clipPath>
<clipPath id="clip91">
  <path d="M 58.320312 76 L 82 76 L 82 102 L 58.320312 102 Z M 58.320312 76 "/>
</clipPath>
<clipPath id="clip92">
  <path d="M 128 75 L 139.308594 75 L 139.308594 87 L 128 87 Z M 128 75 "/>
</clipPath>
</defs>
<g id="surface1">
<path style=" stroke:none;fill-rule:nonzero;fill:rgb(100%,24.708557%,24.708557%);fill-opacity:1;" d="M 28.535156 112.386719 C 57.824219 131.394531 93.175781 141.832031 130.980469 141.097656 C 186.574219 140.019531 235.902344 114.144531 268.953125 74.789062 C 293.191406 85.886719 320.453125 92.03125 348.914062 91.480469 C 371.597656 91.039062 393.3125 86.613281 413.179688 78.664062 C 447.425781 123.828125 502.261719 152.578125 563.195312 151.394531 C 623.679688 150.21875 676.925781 119.816406 709.40625 74.246094 C 743.4375 108.292969 790.550781 128.734375 842.585938 127.726562 C 883.503906 126.929688 921.046875 112.851562 951.296875 89.570312 C 989.066406 132.890625 1046.988281 160.242188 1111.035156 159 L 1116.371094 158.894531 L 1121.707031 158.792969 C 1171.964844 157.816406 1217.375 136.464844 1250.101562 103.347656 C 1254.917969 99.25 1259.277344 94.714844 1263.183594 89.742188 C 1276.589844 92.597656 1290.402344 93.664062 1304.1875 93.398438 C 1343.328125 92.636719 1379.109375 79.484375 1408.5 58 C 1428.605469 85.195312 1456.148438 106.019531 1487.988281 118.75 L 1485.628906 -2.679688 L 1486.074219 -2.6875 L 1477.230469 -457.976562 L 18.011719 -429.640625 L 26.84375 25.203125 L 26.398438 25.210938 Z M 28.535156 112.386719 "/>
<g clip-path="url(#clip1)" clip-rule="nonzero">
<g clip-path="url(#clip2)" clip-rule="nonzero">
<g clip-path="url(#clip3)" clip-rule="nonzero">
<g clip-path="url(#clip4)" clip-rule="nonzero">
<path style=" stroke:none;fill-rule:nonzero;fill:rgb(80.778503%,89.408875%,96.469116%);fill-opacity:1;" d="M 174.382812 65.691406 C 175.851562 66.90625 177.078125 69.589844 175.558594 70.96875 C 173.085938 73.203125 169.917969 73.066406 168.355469 71.117188 C 167.730469 70.328125 166.628906 68.160156 166.199219 67.238281 C 164.707031 64.039062 164.398438 59.929688 163.382812 57.640625 C 162.964844 56.683594 161.820312 54.816406 160.871094 53.328125 C 163.308594 49.65625 167.988281 46.585938 169.621094 47.117188 L 169.628906 47.109375 C 171.273438 49.957031 172.511719 52.570312 172.800781 53.953125 C 173.136719 55.617188 173.164062 60.007812 172.980469 62.898438 C 172.886719 64.355469 173.726562 65.144531 174.382812 65.691406 "/>
</g>
</g>
</g>
</g>
<g clip-path="url(#clip5)" clip-rule="nonzero">
<g clip-path="url(#clip6)" clip-rule="nonzero">
<g clip-path="url(#clip7)" clip-rule="nonzero">
<g clip-path="url(#clip8)" clip-rule="nonzero">
<path style=" stroke:none;fill-rule:nonzero;fill:rgb(80.778503%,89.408875%,96.469116%);fill-opacity:1;" d="M 162.535156 70.214844 C 163.121094 71.484375 163.070312 72.941406 163.058594 74.332031 C 163.046875 76.253906 161.71875 78.347656 157.9375 78.003906 C 155.808594 77.804688 155.441406 75.59375 155.464844 74.054688 C 155.472656 72.945312 155.046875 71.867188 154.285156 71.054688 C 152.730469 69.398438 150.039062 66.285156 148.75 64.210938 C 147.957031 62.9375 146.976562 59.160156 146.164062 55.136719 C 149.597656 53.113281 152.136719 53.628906 157.15625 55.140625 C 157.21875 56.929688 157.339844 58.996094 157.589844 59.984375 C 158.226562 62.546875 161.25 67.4375 162.535156 70.214844 "/>
</g>
</g>
</g>
</g>
<g clip-path="url(#clip9)" clip-rule="nonzero">
<g clip-path="url(#clip10)" clip-rule="nonzero">
<g clip-path="url(#clip11)" clip-rule="nonzero">
<g clip-path="url(#clip12)" clip-rule="nonzero">
<path style=" stroke:none;fill-rule:nonzero;fill:rgb(87.838745%,92.939758%,97.648621%);fill-opacity:1;" d="M 132.386719 46.972656 C 132.71875 48.242188 132.726562 51.214844 131.863281 51.769531 C 131.308594 52.121094 130.570312 51.972656 130.351562 51.71875 C 130.082031 51.410156 129.902344 51.195312 129.585938 51.449219 C 128.941406 51.976562 127.167969 52.683594 126.152344 52.300781 C 123.90625 51.457031 124.210938 48.039062 126.578125 45.242188 L 132.386719 46.972656 "/>
</g>
</g>
</g>
</g>
<g clip-path="url(#clip13)" clip-rule="nonzero">
<g clip-path="url(#clip14)" clip-rule="nonzero">
<g clip-path="url(#clip15)" clip-rule="nonzero">
<g clip-path="url(#clip16)" clip-rule="nonzero">
<path style=" stroke:none;fill-rule:nonzero;fill:rgb(87.838745%,92.939758%,97.648621%);fill-opacity:1;" d="M 165.605469 40.855469 C 164.417969 39.21875 162.46875 33.203125 160.371094 27.636719 C 158.785156 23.4375 157.125 19.5 155.632812 17.871094 L 155.632812 17.863281 C 155.183594 17.875 154.726562 17.910156 154.253906 17.964844 C 153.617188 18.039062 152.957031 18.160156 152.28125 18.332031 C 151.617188 21.171875 149.683594 23.675781 146.8125 24.953125 C 144.011719 26.195312 140.933594 25.996094 138.417969 24.675781 C 137.925781 25.046875 137.425781 25.480469 136.910156 25.972656 C 136.757812 26.109375 136.597656 26.265625 136.445312 26.421875 C 136.84375 29.164062 138.144531 32.730469 139.589844 36.15625 C 141.980469 41.839844 144.839844 47.199219 144.949219 48.035156 C 145.234375 50.15625 145.667969 52.691406 146.164062 55.136719 C 149.597656 53.113281 152.136719 53.628906 157.15625 55.140625 C 157.089844 53.425781 157.085938 51.960938 157.085938 51.960938 C 157.195312 50.753906 158.617188 50.269531 159.460938 51.152344 C 159.460938 51.152344 160.097656 52.109375 160.871094 53.328125 C 163.308594 49.65625 167.988281 46.585938 169.621094 47.117188 L 169.628906 47.109375 C 168.433594 45.027344 167.015625 42.804688 165.605469 40.855469 "/>
</g>
</g>
</g>
</g>
<g clip-path="url(#clip17)" clip-rule="nonzero">
<g clip-path="url(#clip18)" clip-rule="nonzero">
<g clip-path="url(#clip19)" clip-rule="nonzero">
<g clip-path="url(#clip20)" clip-rule="nonzero">
<path style=" stroke:none;fill-rule:nonzero;fill:rgb(80.778503%,89.408875%,96.469116%);fill-opacity:1;" d="M 136.445312 26.421875 C 134.898438 27.953125 133.304688 29.929688 131.84375 32.027344 C 128.148438 37.34375 125.339844 43.449219 126.578125 45.242188 L 132.386719 46.972656 C 134.9375 46.53125 136.707031 40.472656 139.589844 36.15625 C 138.144531 32.730469 136.84375 29.164062 136.445312 26.421875 "/>
</g>
</g>
</g>
</g>
<g clip-path="url(#clip21)" clip-rule="nonzero">
<g clip-path="url(#clip22)" clip-rule="nonzero">
<g clip-path="url(#clip23)" clip-rule="nonzero">
<g clip-path="url(#clip24)" clip-rule="nonzero">
<path style=" stroke:none;fill-rule:nonzero;fill:rgb(87.838745%,92.939758%,97.648621%);fill-opacity:1;" d="M 175.496094 26.566406 C 178.382812 26.609375 181.613281 27.984375 180.816406 30.625 C 180.53125 31.550781 177.851562 32.640625 177.6875 32.910156 C 177.496094 33.21875 177.660156 34.113281 177.476562 34.425781 C 177.292969 34.742188 176.203125 35.3125 175.417969 34.867188 C 174.625 34.40625 173.363281 33.121094 172.921875 32.03125 L 175.496094 26.566406 "/>
</g>
</g>
</g>
</g>
<g clip-path="url(#clip25)" clip-rule="nonzero">
<g clip-path="url(#clip26)" clip-rule="nonzero">
<g clip-path="url(#clip27)" clip-rule="nonzero">
<g clip-path="url(#clip28)" clip-rule="nonzero">
<path style=" stroke:none;fill-rule:nonzero;fill:rgb(80.778503%,89.408875%,96.469116%);fill-opacity:1;" d="M 175.496094 26.566406 L 172.921875 32.03125 C 171.320312 32.953125 168.007812 30.90625 160.472656 27.597656 L 160.371094 27.636719 C 158.785156 23.4375 157.125 19.5 155.632812 17.871094 L 156.550781 17.875 C 157.015625 17.867188 157.535156 17.917969 158.09375 18.015625 C 159.851562 18.320312 161.941406 19.070312 163.496094 19.707031 C 164.636719 20.164062 165.492188 20.5625 165.75 20.675781 C 170.214844 22.664062 175.960938 24.621094 175.496094 26.566406 "/>
</g>
</g>
</g>
</g>
<g clip-path="url(#clip29)" clip-rule="nonzero">
<g clip-path="url(#clip30)" clip-rule="nonzero">
<g clip-path="url(#clip31)" clip-rule="nonzero">
<g clip-path="url(#clip32)" clip-rule="nonzero">
<path style=" stroke:none;fill-rule:nonzero;fill:rgb(40.388489%,79.60968%,70.588684%);fill-opacity:1;" d="M 181.050781 15.828125 C 181.210938 16.90625 180.152344 17.703125 179.070312 17.859375 C 177.992188 18.019531 176.988281 17.269531 176.828125 16.191406 C 176.671875 15.109375 177.589844 13.824219 178.671875 13.664062 C 179.753906 13.507812 180.894531 14.746094 181.050781 15.828125 "/>
</g>
</g>
</g>
</g>
<g clip-path="url(#clip33)" clip-rule="nonzero">
<g clip-path="url(#clip34)" clip-rule="nonzero">
<g clip-path="url(#clip35)" clip-rule="nonzero">
<g clip-path="url(#clip36)" clip-rule="nonzero">
<path style=" stroke:none;fill-rule:nonzero;fill:rgb(37.249756%,41.178894%,73.329163%);fill-opacity:1;" d="M 187.269531 54.226562 C 187.492188 55.761719 185.992188 56.890625 184.457031 57.113281 C 182.921875 57.339844 181.5 56.277344 181.273438 54.742188 C 181.050781 53.210938 182.355469 51.382812 183.890625 51.160156 C 185.425781 50.933594 187.042969 52.695312 187.269531 54.226562 "/>
</g>
</g>
</g>
</g>
<g clip-path="url(#clip37)" clip-rule="nonzero">
<g clip-path="url(#clip38)" clip-rule="nonzero">
<g clip-path="url(#clip39)" clip-rule="nonzero">
<g clip-path="url(#clip40)" clip-rule="nonzero">
<path style=" stroke:none;fill-rule:nonzero;fill:rgb(42.749023%,56.858826%,82.348633%);fill-opacity:1;" d="M 125.164062 16.265625 C 125.320312 17.335938 124.269531 18.125 123.199219 18.28125 C 122.128906 18.4375 121.132812 17.695312 120.976562 16.625 C 120.820312 15.554688 121.730469 14.28125 122.800781 14.125 C 123.871094 13.96875 125.003906 15.195312 125.164062 16.265625 "/>
</g>
</g>
</g>
</g>
<g clip-path="url(#clip41)" clip-rule="nonzero">
<g clip-path="url(#clip42)" clip-rule="nonzero">
<g clip-path="url(#clip43)" clip-rule="nonzero">
<g clip-path="url(#clip44)" clip-rule="nonzero">
<path style=" stroke:none;fill-rule:nonzero;fill:rgb(96.469116%,51.759338%,21.179199%);fill-opacity:1;" d="M 128.136719 25.277344 C 128.253906 26.070312 127.476562 26.65625 126.683594 26.769531 C 125.890625 26.886719 125.152344 26.339844 125.039062 25.546875 C 124.921875 24.753906 125.597656 23.808594 126.390625 23.691406 C 127.183594 23.574219 128.019531 24.484375 128.136719 25.277344 "/>
</g>
</g>
</g>
</g>
<g clip-path="url(#clip45)" clip-rule="nonzero">
<g clip-path="url(#clip46)" clip-rule="nonzero">
<g clip-path="url(#clip47)" clip-rule="nonzero">
<g clip-path="url(#clip48)" clip-rule="nonzero">
<path style=" stroke:none;fill-rule:nonzero;fill:rgb(94.898987%,32.548523%,36.079407%);fill-opacity:1;" d="M 119.34375 34.195312 C 119.460938 34.988281 118.683594 35.574219 117.890625 35.691406 C 117.097656 35.804688 116.359375 35.257812 116.242188 34.464844 C 116.125 33.671875 116.804688 32.726562 117.597656 32.613281 C 118.390625 32.496094 119.226562 33.402344 119.34375 34.195312 "/>
</g>
</g>
</g>
</g>
<g clip-path="url(#clip49)" clip-rule="nonzero">
<g clip-path="url(#clip50)" clip-rule="nonzero">
<g clip-path="url(#clip51)" clip-rule="nonzero">
<g clip-path="url(#clip52)" clip-rule="nonzero">
<path style=" stroke:none;fill-rule:nonzero;fill:rgb(93.728638%,17.649841%,43.528748%);fill-opacity:1;" d="M 141.875 71.527344 C 141.988281 72.320312 141.214844 72.90625 140.421875 73.023438 C 139.628906 73.136719 138.890625 72.589844 138.773438 71.796875 C 138.660156 71.003906 139.332031 70.058594 140.128906 69.941406 C 140.917969 69.824219 141.757812 70.734375 141.875 71.527344 "/>
</g>
</g>
</g>
</g>
<g clip-path="url(#clip53)" clip-rule="nonzero">
<g clip-path="url(#clip54)" clip-rule="nonzero">
<g clip-path="url(#clip55)" clip-rule="nonzero">
<g clip-path="url(#clip56)" clip-rule="nonzero">
<path style=" stroke:none;fill-rule:nonzero;fill:rgb(98.429871%,79.60968%,39.608765%);fill-opacity:1;" d="M 126.546875 62.847656 L 127.179688 63.6875 C 127.226562 63.75 127.296875 63.800781 127.375 63.832031 L 128.355469 64.195312 C 128.679688 64.316406 128.742188 64.746094 128.46875 64.953125 L 127.628906 65.582031 C 127.5625 65.632812 127.511719 65.699219 127.484375 65.777344 L 127.121094 66.757812 C 127 67.082031 126.570312 67.144531 126.363281 66.871094 L 125.734375 66.035156 C 125.683594 65.96875 125.613281 65.917969 125.535156 65.886719 L 124.554688 65.523438 C 124.230469 65.40625 124.167969 64.976562 124.445312 64.769531 L 125.28125 64.136719 C 125.347656 64.085938 125.398438 64.019531 125.425781 63.941406 L 125.792969 62.960938 C 125.910156 62.636719 126.339844 62.574219 126.546875 62.847656 "/>
</g>
</g>
</g>
</g>
<g clip-path="url(#clip57)" clip-rule="nonzero">
<g clip-path="url(#clip58)" clip-rule="nonzero">
<g clip-path="url(#clip59)" clip-rule="nonzero">
<g clip-path="url(#clip60)" clip-rule="nonzero">
<path style=" stroke:none;fill-rule:nonzero;fill:rgb(98.429871%,79.60968%,39.608765%);fill-opacity:1;" d="M 166.203125 9.46875 L 166.867188 10.347656 C 166.917969 10.414062 166.992188 10.472656 167.074219 10.5 L 168.101562 10.882812 C 168.441406 11.007812 168.507812 11.457031 168.21875 11.675781 L 167.339844 12.335938 C 167.273438 12.390625 167.21875 12.460938 167.1875 12.542969 L 166.804688 13.570312 C 166.679688 13.910156 166.230469 13.976562 166.011719 13.6875 L 165.351562 12.8125 C 165.300781 12.742188 165.226562 12.6875 165.144531 12.660156 L 164.113281 12.277344 C 163.777344 12.148438 163.710938 11.699219 163.996094 11.484375 L 164.875 10.824219 C 164.945312 10.769531 165 10.695312 165.03125 10.613281 L 165.410156 9.585938 C 165.539062 9.246094 165.988281 9.179688 166.203125 9.46875 "/>
</g>
</g>
</g>
</g>
<g clip-path="url(#clip61)" clip-rule="nonzero">
<g clip-path="url(#clip62)" clip-rule="nonzero">
<g clip-path="url(#clip63)" clip-rule="nonzero">
<g clip-path="url(#clip64)" clip-rule="nonzero">
<path style=" stroke:none;fill-rule:nonzero;fill:rgb(65.489197%,75.289917%,90.19928%);fill-opacity:1;" d="M 154.253906 17.964844 C 153.664062 21.679688 151.265625 25.019531 147.570312 26.664062 C 143.984375 28.253906 140.023438 27.871094 136.910156 25.972656 C 137.425781 25.480469 137.925781 25.046875 138.417969 24.675781 C 140.933594 25.996094 144.011719 26.195312 146.8125 24.953125 C 149.683594 23.675781 151.617188 21.171875 152.28125 18.332031 C 152.957031 18.160156 153.617188 18.039062 154.253906 17.964844 "/>
</g>
</g>
</g>
</g>
<g clip-path="url(#clip65)" clip-rule="nonzero">
<g clip-path="url(#clip66)" clip-rule="nonzero">
<g clip-path="url(#clip67)" clip-rule="nonzero">
<g clip-path="url(#clip68)" clip-rule="nonzero">
<path style=" stroke:none;fill-rule:nonzero;fill:rgb(87.838745%,92.939758%,97.648621%);fill-opacity:1;" d="M 151.699219 12.246094 C 153.859375 17.105469 151.671875 22.792969 146.8125 24.953125 C 141.953125 27.113281 136.261719 24.929688 134.101562 20.070312 C 131.941406 15.214844 134.128906 9.523438 138.988281 7.363281 C 143.847656 5.203125 149.539062 7.390625 151.699219 12.246094 "/>
</g>
</g>
</g>
</g>
<g clip-path="url(#clip69)" clip-rule="nonzero">
<g clip-path="url(#clip70)" clip-rule="nonzero">
<g clip-path="url(#clip71)" clip-rule="nonzero">
<g clip-path="url(#clip72)" clip-rule="nonzero">
<path style=" stroke:none;fill-rule:nonzero;fill:rgb(27.059937%,23.529053%,39.219666%);fill-opacity:1;" d="M 151.683594 12.214844 C 153.210938 15.640625 150.503906 20.175781 145.648438 22.335938 C 140.789062 24.496094 135.613281 23.464844 134.085938 20.039062 C 132.5625 16.609375 135.265625 12.078125 140.121094 9.917969 C 144.980469 7.757812 150.160156 8.785156 151.683594 12.214844 "/>
</g>
</g>
</g>
</g>
<g clip-path="url(#clip73)" clip-rule="nonzero">
<g clip-path="url(#clip74)" clip-rule="nonzero">
<g clip-path="url(#clip75)" clip-rule="nonzero">
<g clip-path="url(#clip76)" clip-rule="nonzero">
<path style=" stroke:none;fill-rule:nonzero;fill:rgb(100%,100%,100%);fill-opacity:1;" d="M 153.863281 34.898438 L 149.480469 36.84375 C 148.324219 37.359375 146.96875 36.839844 146.453125 35.683594 L 145.058594 32.546875 C 144.542969 31.390625 145.066406 30.035156 146.21875 29.523438 L 150.605469 27.574219 C 151.757812 27.0625 153.113281 27.578125 153.628906 28.734375 L 155.023438 31.875 C 155.539062 33.03125 155.019531 34.382812 153.863281 34.898438 "/>
</g>
</g>
</g>
</g>
<g clip-path="url(#clip77)" clip-rule="nonzero">
<g clip-path="url(#clip78)" clip-rule="nonzero">
<g clip-path="url(#clip79)" clip-rule="nonzero">
<g clip-path="url(#clip80)" clip-rule="nonzero">
<path style=" stroke:none;fill-rule:nonzero;fill:rgb(42.749023%,56.858826%,82.348633%);fill-opacity:1;" d="M 163.496094 19.707031 C 161.472656 22.875 158.800781 19.621094 158.085938 18.019531 L 158.09375 18.015625 C 159.851562 18.320312 161.941406 19.070312 163.496094 19.707031 "/>
</g>
</g>
</g>
</g>
<g clip-path="url(#clip81)" clip-rule="nonzero">
<g clip-path="url(#clip82)" clip-rule="nonzero">
<g clip-path="url(#clip83)" clip-rule="nonzero">
<g clip-path="url(#clip84)" clip-rule="nonzero">
<path style=" stroke:none;fill-rule:nonzero;fill:rgb(94.898987%,32.548523%,36.079407%);fill-opacity:1;" d="M 157.28125 56.019531 C 157.03125 56.058594 156.773438 55.988281 156.566406 55.8125 C 153.96875 53.550781 149.59375 54.148438 146.617188 55.902344 C 146.191406 56.15625 145.644531 56.011719 145.394531 55.589844 C 145.148438 55.167969 145.289062 54.625 145.710938 54.375 C 149.132812 52.355469 154.351562 51.527344 157.738281 54.46875 C 158.105469 54.789062 158.148438 55.351562 157.820312 55.722656 C 157.679688 55.890625 157.484375 55.992188 157.28125 56.019531 "/>
</g>
</g>
</g>
</g>
<g clip-path="url(#clip85)" clip-rule="nonzero">
<g clip-path="url(#clip86)" clip-rule="nonzero">
<g clip-path="url(#clip87)" clip-rule="nonzero">
<g clip-path="url(#clip88)" clip-rule="nonzero">
<path style=" stroke:none;fill-rule:nonzero;fill:rgb(94.898987%,32.548523%,36.079407%);fill-opacity:1;" d="M 160.996094 54.207031 C 160.859375 54.226562 160.722656 54.214844 160.582031 54.167969 C 160.117188 54.011719 159.867188 53.507812 160.023438 53.042969 C 161.421875 48.898438 167.582031 45.515625 169.898438 46.273438 C 170.367188 46.425781 170.621094 46.925781 170.46875 47.390625 C 170.316406 47.863281 169.8125 48.117188 169.347656 47.964844 C 168.28125 47.617188 162.898438 50.097656 161.710938 53.609375 C 161.601562 53.9375 161.316406 54.160156 160.996094 54.207031 "/>
</g>
</g>
</g>
</g>
<g clip-path="url(#clip89)" clip-rule="nonzero">
<path style=" stroke:none;fill-rule:nonzero;fill:rgb(15.289307%,31.369019%,66.268921%);fill-opacity:1;" d="M 97.429688 90.984375 C 100.359375 90.285156 102.875 90.472656 104.808594 90.929688 C 102.128906 80.730469 92.917969 73.210938 81.960938 73.210938 C 81.273438 73.210938 80.59375 73.246094 79.917969 73.304688 C 88.382812 74.171875 95.332031 81.398438 97.429688 90.984375 "/>
</g>
<path style=" stroke:none;fill-rule:nonzero;fill:rgb(15.289307%,31.369019%,66.268921%);fill-opacity:1;" d="M 79.917969 120.804688 C 80.59375 120.863281 81.273438 120.898438 81.960938 120.898438 C 83.519531 120.898438 85.039062 120.742188 86.515625 120.453125 L 88.761719 117.253906 C 86.15625 119.214844 83.148438 120.472656 79.917969 120.804688 "/>
<g clip-path="url(#clip90)" clip-rule="nonzero">
<path style=" stroke:none;fill-rule:nonzero;fill:rgb(11.759949%,40.779114%,73.329163%);fill-opacity:1;" d="M 67.042969 109.335938 C 66.457031 106.832031 67.1875 105.507812 69.671875 105.507812 C 71.140625 105.507812 75.808594 107.570312 74.203125 110.8125 C 72.597656 114.054688 67.628906 111.84375 67.042969 109.335938 Z M 88.761719 117.253906 L 89.800781 115.773438 L 90.601562 114.636719 L 89.226562 113.25 C 89.226562 113.25 89.878906 112.003906 91.164062 109.964844 C 91.3125 109.730469 91.464844 109.484375 91.632812 109.230469 C 89.917969 108.664062 85.285156 107.921875 79.21875 113.210938 C 77.679688 114.550781 75.363281 112.828125 76.667969 110.5 C 77.46875 109.066406 78.792969 107.070312 80.394531 104.921875 C 83.726562 100.453125 88.28125 95.320312 91.988281 93.1875 C 93.921875 92.078125 95.742188 91.382812 97.429688 90.984375 C 95.332031 81.398438 88.382812 74.171875 79.917969 73.304688 C 76.113281 73.632812 72.566406 74.867188 69.492188 76.796875 C 71.546875 77.578125 73.648438 79.257812 73.824219 82.84375 C 73.992188 86.320312 74.960938 88.003906 75.546875 89.058594 C 76.964844 91.605469 80.09375 93.015625 81.425781 95.851562 C 82.753906 98.691406 78.714844 102.8125 74.253906 99.871094 C 69.792969 96.929688 69.234375 98.421875 67.1875 99.660156 C 64.832031 101.082031 61.199219 101.421875 58.570312 100.53125 C 60.144531 111.386719 68.964844 119.859375 79.917969 120.804688 C 83.148438 120.472656 86.15625 119.214844 88.761719 117.253906 "/>
</g>
<g clip-path="url(#clip91)" clip-rule="nonzero">
<path style=" stroke:none;fill-rule:nonzero;fill:rgb(50.979614%,78.039551%,14.118958%);fill-opacity:1;" d="M 67.1875 99.660156 C 69.234375 98.421875 69.792969 96.929688 74.253906 99.871094 C 78.714844 102.8125 82.753906 98.691406 81.425781 95.851562 C 80.09375 93.015625 76.964844 91.605469 75.546875 89.058594 C 74.960938 88.003906 73.992188 86.320312 73.824219 82.84375 C 73.648438 79.257812 71.546875 77.578125 69.492188 76.796875 C 62.785156 81.007812 58.320312 88.503906 58.320312 97.054688 C 58.320312 98.234375 58.40625 99.394531 58.570312 100.53125 C 61.199219 101.421875 64.832031 101.082031 67.1875 99.660156 "/>
</g>
<path style=" stroke:none;fill-rule:nonzero;fill:rgb(50.979614%,78.039551%,14.118958%);fill-opacity:1;" d="M 74.203125 110.8125 C 75.808594 107.570312 71.140625 105.507812 69.671875 105.507812 C 67.1875 105.507812 66.457031 106.832031 67.042969 109.335938 C 67.628906 111.84375 72.597656 114.054688 74.203125 110.8125 "/>
<path style=" stroke:none;fill-rule:nonzero;fill:rgb(96.078491%,47.839355%,7.839966%);fill-opacity:1;" d="M 93.089844 119.09375 C 90.140625 121.082031 87.574219 122.601562 87.15625 122.179688 C 86.878906 121.898438 87.492188 120.820312 88.664062 119.304688 C 89.246094 118.550781 89.964844 117.691406 90.785156 116.765625 L 89.800781 115.773438 L 88.761719 117.253906 L 86.515625 120.453125 L 84.503906 123.3125 L 84.5 123.316406 C 84 123.820312 85.292969 125.949219 87.390625 128.0625 C 89.488281 130.179688 91.59375 131.484375 92.097656 130.976562 L 99.574219 125.632812 L 93.089844 119.09375 "/>
<path style=" stroke:none;fill-rule:nonzero;fill:rgb(85.879517%,22.349548%,14.118958%);fill-opacity:1;" d="M 94.238281 118.308594 C 93.851562 118.574219 93.46875 118.835938 93.089844 119.09375 L 99.574219 125.632812 L 100.703125 124.828125 L 95.652344 119.730469 L 94.238281 118.308594 "/>
<path style=" stroke:none;fill-rule:nonzero;fill:rgb(85.879517%,22.349548%,14.118958%);fill-opacity:1;" d="M 90.601562 114.636719 L 89.800781 115.773438 L 90.785156 116.765625 C 91.078125 116.433594 91.382812 116.09375 91.699219 115.746094 L 90.601562 114.636719 "/>
<path style=" stroke:none;fill-rule:nonzero;fill:rgb(94.509888%,27.059937%,23.919678%);fill-opacity:1;" d="M 119.945312 112.453125 C 120.859375 115.5 121.285156 120.414062 117.953125 126.308594 C 116.433594 128.992188 113.382812 132.117188 110.144531 134.914062 C 114.570312 131.550781 119.652344 126.960938 121.765625 123.222656 C 125.382812 116.832031 124.574219 111.59375 123.519531 108.640625 C 122.335938 109.984375 121.136719 111.257812 119.945312 112.453125 "/>
<path style=" stroke:none;fill-rule:nonzero;fill:rgb(78.42865%,9.01947%,11.759949%);fill-opacity:1;" d="M 117.953125 126.308594 C 121.285156 120.414062 120.859375 115.5 119.945312 112.453125 C 114.59375 117.8125 109.351562 121.628906 105.945312 123.863281 C 106.480469 125.78125 106.902344 130.285156 101.917969 136.105469 C 100.585938 137.65625 102.292969 139.992188 104.601562 138.679688 C 106.027344 137.867188 108.007812 136.53125 110.144531 134.914062 C 113.382812 132.117188 116.433594 128.992188 117.953125 126.308594 "/>
<path style=" stroke:none;fill-rule:nonzero;fill:rgb(94.509888%,27.059937%,23.919678%);fill-opacity:1;" d="M 97.429688 90.984375 C 95.742188 91.382812 93.921875 92.078125 91.988281 93.1875 C 88.28125 95.320312 83.726562 100.453125 80.394531 104.921875 C 83.167969 101.648438 86.269531 98.566406 88.929688 97.035156 C 94.976562 93.554688 99.980469 94.136719 102.972656 95.121094 C 104.15625 93.925781 105.414062 92.722656 106.75 91.53125 C 106.191406 91.316406 105.542969 91.105469 104.808594 90.929688 C 102.875 90.472656 100.359375 90.285156 97.429688 90.984375 "/>
<path style=" stroke:none;fill-rule:nonzero;fill:rgb(78.42865%,9.01947%,11.759949%);fill-opacity:1;" d="M 99.234375 99.15625 C 100.382812 97.835938 101.628906 96.484375 102.972656 95.121094 C 99.980469 94.136719 94.976562 93.554688 88.929688 97.035156 C 86.269531 98.566406 83.167969 101.648438 80.394531 104.921875 C 78.792969 107.070312 77.46875 109.066406 76.667969 110.5 C 75.363281 112.828125 77.679688 114.550781 79.21875 113.210938 C 85.285156 107.921875 89.917969 108.664062 91.632812 109.230469 C 93.304688 106.644531 95.84375 103.050781 99.234375 99.15625 "/>
<path style=" stroke:none;fill-rule:nonzero;fill:rgb(38.42926%,76.858521%,94.119263%);fill-opacity:1;" d="M 94.238281 113.0625 C 97.644531 109.574219 101.625 105.933594 104.628906 103.792969 C 106.199219 102.671875 107.550781 101.8125 108.71875 101.144531 L 99.234375 99.15625 C 95.84375 103.050781 93.304688 106.644531 91.632812 109.230469 C 91.464844 109.484375 91.3125 109.730469 91.164062 109.964844 L 94.238281 113.0625 "/>
<path style=" stroke:none;fill-rule:nonzero;fill:rgb(38.42926%,76.858521%,94.119263%);fill-opacity:1;" d="M 119.945312 112.453125 C 121.136719 111.257812 122.335938 109.984375 123.519531 108.640625 C 124.566406 107.449219 125.601562 106.203125 126.613281 104.894531 L 112.835938 102.007812 L 112.035156 102.8125 L 103.042969 111.882812 C 103.042969 111.882812 100.414062 113.894531 97.296875 116.148438 L 105.335938 124.257812 C 105.53125 124.132812 105.734375 124 105.945312 123.863281 C 109.351562 121.628906 114.59375 117.8125 119.945312 112.453125 "/>
<path style=" stroke:none;fill-rule:nonzero;fill:rgb(21.179199%,69.018555%,87.838745%);fill-opacity:1;" d="M 117.289062 87.492188 C 117.375 87.40625 117.46875 87.328125 117.558594 87.246094 C 117.640625 87.15625 117.71875 87.058594 117.804688 86.972656 C 120.65625 84.09375 125.28125 84.09375 128.128906 86.972656 C 130.984375 89.847656 130.984375 94.511719 128.128906 97.386719 C 128.042969 97.472656 127.949219 97.550781 127.859375 97.632812 C 127.777344 97.722656 127.703125 97.816406 127.617188 97.90625 C 124.765625 100.78125 120.140625 100.78125 117.289062 97.90625 C 114.4375 95.03125 114.4375 90.367188 117.289062 87.492188 Z M 102.972656 95.121094 C 101.628906 96.484375 100.382812 97.835938 99.234375 99.15625 L 108.71875 101.144531 C 114.195312 98.019531 115.546875 99.269531 115.546875 99.269531 L 112.835938 102.007812 L 126.613281 104.894531 C 130.097656 100.386719 133.296875 95.179688 135.675781 89.289062 C 133.285156 88.945312 130.984375 87.851562 129.144531 85.996094 C 127.292969 84.125 126.203125 81.777344 125.875 79.34375 C 118.367188 82.421875 111.980469 86.867188 106.75 91.53125 C 105.414062 92.722656 104.15625 93.925781 102.972656 95.121094 "/>
<path style=" stroke:none;fill-rule:nonzero;fill:rgb(23.529053%,63.139343%,81.959534%);fill-opacity:1;" d="M 135.675781 89.289062 C 135.835938 88.886719 135.996094 88.480469 136.148438 88.074219 C 133.9375 87.761719 131.804688 86.746094 130.101562 85.03125 C 128.386719 83.300781 127.378906 81.121094 127.078125 78.867188 C 126.675781 79.023438 126.273438 79.183594 125.875 79.34375 C 126.203125 81.777344 127.292969 84.125 129.144531 85.996094 C 130.984375 87.851562 133.285156 88.945312 135.675781 89.289062 "/>
<path style=" stroke:none;fill-rule:nonzero;fill:rgb(94.119263%,21.958923%,21.958923%);fill-opacity:1;" d="M 130.101562 85.03125 C 131.804688 86.746094 133.9375 87.761719 136.148438 88.074219 C 136.320312 87.617188 136.488281 87.15625 136.652344 86.691406 C 134.660156 86.382812 132.746094 85.457031 131.214844 83.910156 C 129.664062 82.347656 128.742188 80.390625 128.445312 78.363281 C 127.988281 78.527344 127.53125 78.695312 127.078125 78.867188 C 127.378906 81.121094 128.386719 83.300781 130.101562 85.03125 "/>
<g clip-path="url(#clip92)" clip-rule="nonzero">
<path style=" stroke:none;fill-rule:nonzero;fill:rgb(92.939758%,10.978699%,14.118958%);fill-opacity:1;" d="M 131.214844 83.910156 C 132.746094 85.457031 134.660156 86.382812 136.652344 86.691406 C 137.855469 83.242188 138.777344 79.578125 139.308594 75.695312 C 135.472656 76.230469 131.851562 77.152344 128.445312 78.363281 C 128.742188 80.390625 129.664062 82.347656 131.214844 83.910156 "/>
</g>
<path style=" stroke:none;fill-rule:nonzero;fill:rgb(21.179199%,69.018555%,87.838745%);fill-opacity:1;" d="M 97.296875 116.148438 C 96.304688 116.863281 95.261719 117.601562 94.238281 118.308594 L 95.652344 119.730469 L 100.703125 124.828125 L 102.078125 126.214844 C 102.078125 126.214844 103.316406 125.554688 105.335938 124.257812 L 97.296875 116.148438 "/>
<path style=" stroke:none;fill-rule:nonzero;fill:rgb(21.179199%,69.018555%,87.838745%);fill-opacity:1;" d="M 91.699219 115.746094 C 92.488281 114.882812 93.34375 113.976562 94.238281 113.0625 L 91.164062 109.964844 C 89.878906 112.003906 89.226562 113.25 89.226562 113.25 L 90.601562 114.636719 L 91.699219 115.746094 "/>
<path style=" stroke:none;fill-rule:nonzero;fill:rgb(28.239441%,61.178589%,78.819275%);fill-opacity:1;" d="M 127.617188 97.90625 C 127.703125 97.816406 127.777344 97.722656 127.859375 97.632812 C 124.996094 100.25 120.570312 100.175781 117.804688 97.386719 C 115.042969 94.597656 114.964844 90.136719 117.558594 87.246094 C 117.46875 87.328125 117.375 87.40625 117.289062 87.492188 C 114.4375 90.367188 114.4375 95.03125 117.289062 97.90625 C 120.140625 100.78125 124.765625 100.78125 127.617188 97.90625 "/>
<path style=" stroke:none;fill-rule:nonzero;fill:rgb(94.509888%,27.059937%,23.919678%);fill-opacity:1;" d="M 108.71875 101.144531 C 107.550781 101.8125 106.199219 102.671875 104.628906 103.792969 C 101.625 105.933594 97.644531 109.574219 94.238281 113.0625 C 93.34375 113.976562 92.488281 114.882812 91.699219 115.746094 C 91.382812 116.09375 91.078125 116.433594 90.785156 116.765625 C 89.964844 117.691406 89.246094 118.550781 88.664062 119.304688 C 92.449219 115.175781 97.710938 110.167969 101.460938 107.496094 C 108.425781 102.53125 111.167969 102.558594 112.035156 102.8125 L 112.835938 102.007812 L 115.546875 99.269531 C 115.546875 99.269531 114.195312 98.019531 108.71875 101.144531 "/>
<path style=" stroke:none;fill-rule:nonzero;fill:rgb(73.728943%,8.239746%,10.5896%);fill-opacity:1;" d="M 101.460938 107.496094 C 97.710938 110.167969 92.449219 115.175781 88.664062 119.304688 C 87.492188 120.820312 86.878906 121.898438 87.15625 122.179688 C 87.574219 122.601562 90.140625 121.082031 93.089844 119.09375 C 93.46875 118.835938 93.851562 118.574219 94.238281 118.308594 C 95.261719 117.601562 96.304688 116.863281 97.296875 116.148438 C 100.414062 113.894531 103.042969 111.882812 103.042969 111.882812 L 112.035156 102.8125 C 111.167969 102.558594 108.425781 102.53125 101.460938 107.496094 "/>
<path style=" stroke:none;fill-rule:nonzero;fill:rgb(45.098877%,81.17981%,93.728638%);fill-opacity:1;" d="M 118.804688 96.378906 C 116.503906 94.058594 116.503906 90.296875 118.804688 87.980469 C 121.105469 85.65625 124.832031 85.65625 127.132812 87.980469 C 129.433594 90.296875 129.433594 94.058594 127.132812 96.378906 C 124.832031 98.699219 121.105469 98.699219 118.804688 96.378906 Z M 117.804688 97.386719 C 120.570312 100.175781 124.996094 100.25 127.859375 97.632812 C 127.949219 97.550781 128.042969 97.472656 128.128906 97.386719 C 130.984375 94.511719 130.984375 89.847656 128.128906 86.972656 C 125.28125 84.09375 120.65625 84.09375 117.804688 86.972656 C 117.71875 87.058594 117.640625 87.15625 117.558594 87.246094 C 114.964844 90.136719 115.042969 94.597656 117.804688 97.386719 "/>
<path style=" stroke:none;fill-rule:nonzero;fill:rgb(23.529053%,63.139343%,81.959534%);fill-opacity:1;" d="M 126.59375 95.835938 C 124.589844 97.855469 121.34375 97.855469 119.34375 95.835938 C 117.746094 94.222656 117.425781 91.8125 118.378906 89.878906 C 118.621094 89.390625 118.9375 88.929688 119.34375 88.523438 C 121.34375 86.503906 124.589844 86.503906 126.59375 88.523438 C 127.507812 89.445312 128 90.632812 128.078125 91.839844 C 128.171875 93.273438 127.679688 94.738281 126.59375 95.835938 Z M 127.132812 87.980469 C 124.832031 85.65625 121.105469 85.65625 118.804688 87.980469 C 116.503906 90.296875 116.503906 94.058594 118.804688 96.378906 C 121.105469 98.699219 124.832031 98.699219 127.132812 96.378906 C 129.433594 94.058594 129.433594 90.296875 127.132812 87.980469 "/>
<path style=" stroke:none;fill-rule:nonzero;fill:rgb(48.239136%,83.139038%,96.859741%);fill-opacity:1;" d="M 128.078125 91.839844 C 125.324219 93.632812 121.613281 93.316406 119.203125 90.882812 C 118.890625 90.570312 118.621094 90.230469 118.378906 89.878906 C 117.425781 91.8125 117.746094 94.222656 119.34375 95.835938 C 121.34375 97.855469 124.589844 97.855469 126.59375 95.835938 C 127.679688 94.738281 128.171875 93.273438 128.078125 91.839844 "/>
<path style=" stroke:none;fill-rule:nonzero;fill:rgb(74.119568%,91.758728%,98.429871%);fill-opacity:1;" d="M 128.078125 91.839844 C 128 90.632812 127.507812 89.445312 126.59375 88.523438 C 124.589844 86.503906 121.34375 86.503906 119.34375 88.523438 C 118.9375 88.929688 118.621094 89.390625 118.378906 89.878906 C 118.621094 90.230469 118.890625 90.570312 119.203125 90.882812 C 121.613281 93.316406 125.324219 93.632812 128.078125 91.839844 "/>
<path style=" stroke:none;fill-rule:nonzero;fill:rgb(78.42865%,9.01947%,11.759949%);fill-opacity:1;" d="M 86.824219 135.382812 C 88.183594 137.175781 88.363281 138.0625 87.851562 139.523438 C 87.851562 139.523438 89.179688 137.789062 88.8125 135.800781 L 86.824219 135.382812 "/>
<path style=" stroke:none;fill-rule:nonzero;fill:rgb(78.42865%,9.01947%,11.759949%);fill-opacity:1;" d="M 84.882812 134.972656 L 73.914062 132.675781 C 73.359375 132.910156 72.628906 133.148438 72.078125 133.609375 C 69.699219 135.644531 71.585938 138.136719 71.539062 138.140625 C 71.546875 138.144531 71.460938 137.117188 72.441406 135.988281 C 74.082031 134.144531 76.105469 136.875 73.84375 137.699219 C 72.894531 138.042969 71.414062 139.035156 71.878906 141.035156 C 72.582031 144.832031 68.894531 144.707031 68.953125 144.765625 C 71.890625 146.691406 74.367188 145.140625 74.835938 143.613281 C 75.25 142.164062 76.339844 141.226562 77.039062 141.933594 C 78.242188 143.148438 75.261719 144.363281 75.277344 144.382812 C 76.511719 145.539062 78.710938 144.710938 79.433594 143.074219 C 80.289062 141.128906 81.421875 139.730469 82.167969 140.585938 C 83.339844 141.929688 79.871094 143.28125 79.882812 143.292969 C 82.941406 144.820312 89.039062 140.777344 85.855469 136.210938 C 85.53125 135.746094 85.1875 135.355469 84.882812 134.972656 "/>
<path style=" stroke:none;fill-rule:nonzero;fill:rgb(78.42865%,9.01947%,11.759949%);fill-opacity:1;" d="M 71.15625 138.402344 C 71.140625 138.390625 69.335938 138.910156 69.554688 140.695312 C 69.675781 141.765625 70.195312 142.699219 69.699219 143.242188 C 69.679688 143.234375 71.175781 142.707031 70.628906 140.613281 C 70.253906 139.277344 71.148438 138.402344 71.15625 138.402344 "/>
<path style=" stroke:none;fill-rule:nonzero;fill:rgb(78.42865%,9.01947%,11.759949%);fill-opacity:1;" d="M 72.679688 132.519531 C 72.679688 132.519531 72.703125 132.484375 72.75 132.433594 L 72.710938 132.421875 C 72.695312 132.484375 72.683594 132.519531 72.679688 132.519531 "/>
<path style=" stroke:none;fill-rule:nonzero;fill:rgb(65.098572%,7.058716%,9.01947%);fill-opacity:1;" d="M 87.851562 133.863281 C 85.925781 131.660156 86.1875 130.613281 86.523438 130.117188 C 86.523438 130.117188 84.003906 131.925781 86.058594 134.414062 C 86.347656 134.765625 86.601562 135.085938 86.824219 135.382812 L 88.8125 135.800781 C 88.695312 135.164062 88.410156 134.503906 87.851562 133.863281 "/>
<path style=" stroke:none;fill-rule:nonzero;fill:rgb(65.098572%,7.058716%,9.01947%);fill-opacity:1;" d="M 83.917969 133.117188 C 83.519531 130.1875 86.625 128.953125 86.625 128.953125 C 86.625 128.953125 83.03125 125.335938 78.378906 126.464844 C 73.734375 127.59375 72.882812 131.753906 72.710938 132.421875 L 72.75 132.433594 C 73.050781 132.074219 74.246094 130.75 74.667969 131.730469 C 74.871094 132.199219 74.488281 132.433594 73.914062 132.675781 L 84.882812 134.972656 C 84.40625 134.390625 84.015625 133.839844 83.917969 133.117188 "/>
</g>
</svg>
