<?xml version="1.0" encoding="UTF-8"?>
<svg xmlns="http://www.w3.org/2000/svg" xmlns:xlink="http://www.w3.org/1999/xlink" width="310.5pt" height="671.999985pt" viewBox="0 0 310.5 671.999985" version="1.2">
<defs>
<clipPath id="clip1">
  <path d="M 0 46 L 310 46 L 310 384 L 0 384 Z M 0 46 "/>
</clipPath>
<clipPath id="clip2">
  <path d="M 0 31 L 310 31 L 310 203 L 0 203 Z M 0 31 "/>
</clipPath>
</defs>
<g id="surface1">
<g clip-path="url(#clip1)" clip-rule="nonzero">
<path style=" stroke:none;fill-rule:nonzero;fill:rgb(19.219971%,65.489197%,67.059326%);fill-opacity:1;" d="M 0 369.160156 C 6.152344 373.324219 13.628906 375.6875 21.671875 375.6875 C 33.503906 375.6875 44.101562 370.390625 51.292969 362.160156 C 56.402344 364.621094 62.175781 366.039062 68.234375 366.039062 C 73.058594 366.039062 77.695312 365.1875 81.957031 363.582031 C 89.054688 373.324219 100.597656 379.660156 113.5625 379.660156 C 126.433594 379.660156 137.882812 373.417969 144.980469 363.863281 C 152.078125 371.242188 162.015625 375.78125 173.089844 375.78125 C 181.796875 375.78125 189.839844 372.945312 196.367188 368.121094 C 204.222656 377.484375 216.429688 383.539062 230.058594 383.539062 L 232.328125 383.539062 C 243.023438 383.539062 252.769531 379.1875 259.867188 372.28125 C 260.910156 371.429688 261.855469 370.484375 262.707031 369.445312 C 265.546875 370.105469 268.480469 370.390625 271.414062 370.390625 C 279.742188 370.390625 287.40625 367.742188 293.746094 363.296875 C 297.910156 369.160156 303.683594 373.699219 310.402344 376.539062 L 310.402344 350.71875 L 310.5 350.71875 L 310.5 46.039062 L 0 46.039062 L 0 350.621094 L -0.09375 350.621094 Z M 0 369.160156 "/>
</g>
<g clip-path="url(#clip2)" clip-rule="nonzero">
<path style=" stroke:none;fill-rule:nonzero;fill:rgb(19.219971%,65.489197%,67.059326%);fill-opacity:1;" d="M 299.386719 202.589844 L 11.113281 202.589844 C 4.996094 202.589844 0.0078125 197.597656 0.0078125 191.46875 L 0.0078125 42.710938 C 0.0078125 36.582031 4.996094 31.589844 11.113281 31.589844 L 299.386719 31.589844 C 305.503906 31.589844 310.492188 36.582031 310.492188 42.710938 L 310.492188 191.46875 C 310.492188 197.597656 305.503906 202.589844 299.386719 202.589844 Z M 299.386719 202.589844 "/>
</g>
</g>
</svg>
